<?xml version="1.0" standalone="no"?>
<!DOCTYPE svg PUBLIC "-//W3C//DTD SVG 1.1//EN" "http://www.w3.org/Graphics/SVG/1.1/DTD/svg11.dtd" >
<svg xmlns="http://www.w3.org/2000/svg">
  <metadata>Created by iconfont</metadata>
  <defs>
  <font id="iconfont" horiz-adv-x="1024">
    <font-face
      font-family="iconfont"
      font-weight="400"
      font-stretch="normal"
      units-per-em="1024"
      ascent="896"
      descent="-128"
    />
      <missing-glyph />
      
      <glyph glyph-name="bandui" unicode="&#58946;" d="M997.08938114 682.26161778c-17.67476253 20.98878051-49.01984922 23.75046215-70.00862973 6.07569962L666.79225627 470.02638326l-89.34040125 106.46282747c-17.67476253 20.98878051-49.01984922 23.75046215-70.00862974 6.07569964-20.98878051-17.67476253-23.75046215-49.01984922-6.07569962-70.00862974L590.70792691 406.09345317 328.34817053 185.98742597 103.1330323 454.2847979c-17.67476253 20.98878051-49.01984922 23.75046215-70.00862973 6.07569961-20.98878051-17.67476253-23.75046215-49.01984922-6.07569962-70.00862972L282.6423393 85.73838221999995c10.21822208-12.15139925 24.9932189-18.22709886 39.7682157-17.67476252 11.87523108-0.41425225 24.02663031 3.31401797 33.96868425 11.5990629l298.26161778 250.34644122 102.32030499-121.92824468c17.67476253-20.98878051 49.01984922-23.75046215 70.00862971-6.07569961 20.98878051 17.67476253 23.75046215 49.01984922 6.07569963 70.00862972l-102.32030499 121.92824467 260.15041106 218.31093413C1011.86437793 629.78966651 1014.62605958 661.13475318 997.08938114 682.26161778z"  horiz-adv-x="1024" />
      
      <glyph glyph-name="xiazaimoban" unicode="&#58938;" d="M512 593.999966a29.999998 29.999998 0 0 0 29.999998-29.999998v-227.57999l68.759997 68.819998a29.999998 29.999998 0 0 0 42.479998-42.479999l-119.999994-119.999994a29.999998 29.999998 0 0 0-42.479998 0l-119.999994 119.999994a29.999998 29.999998 0 1 0 42.479998 42.479999L482.000002 336.419978V563.999968a29.999998 29.999998 0 0 0 29.999998 29.999998zM392.000006 173.999987a29.999998 29.999998 0 0 1 0-59.999997h239.999988a29.999998 29.999998 0 0 1 0 59.999997H392.000006zM392.000006 863.999953a29.999998 29.999998 0 0 1-21.239999-8.76l-239.999988-239.999988A29.999998 29.999998 0 0 1 122.000019 593.999966v-599.999971a89.999995 89.999995 0 0 1 89.999996-89.999995h599.99997a89.999995 89.999995 0 0 1 89.999996 89.999995V773.999958a89.999995 89.999995 0 0 1-89.999996 89.999995H392.000006z m29.999999-59.999997h389.99998a29.999998 29.999998 0 0 0 29.999999-29.999998v-779.999963a29.999998 29.999998 0 0 0-29.999999-29.999998H212.000015a29.999998 29.999998 0 0 0-29.999999 29.999998V563.999968h209.99999a29.999998 29.999998 0 0 1 29.999999 29.999998V803.999956z m-59.999998-179.999991H224.420014L362.000007 761.579958V623.999965z"  horiz-adv-x="1024" />
      
      <glyph glyph-name="lianxi-69" unicode="&#58930;" d="M870.4 742.4c30.72 0 51.2-20.48 51.2-51.2v-512c0-30.72-20.48-51.2-51.2-51.2h-235.52l-15.36-15.36-71.68-71.68c-20.48-20.48-51.2-20.48-71.68 0l-71.68 71.68-15.36 15.36H153.6c-30.72 0-51.2 20.48-51.2 51.2V691.2c0 30.72 20.48 51.2 51.2 51.2h716.8m0 51.2H153.6c-56.32 0-102.4-46.08-102.4-102.4v-512c0-56.32 46.08-102.4 102.4-102.4h215.04l71.68-71.68c40.96-40.96 102.4-40.96 143.36 0l71.68 71.68H870.4c56.32 0 102.4 46.08 102.4 102.4V691.2c0 56.32-46.08 102.4-102.4 102.4zM358.4 435.2c0-30.72-20.48-51.2-51.2-51.2s-51.2 20.48-51.2 51.2 20.48 51.2 51.2 51.2 51.2-20.48 51.2-51.2z m204.8 0c0-30.72-20.48-51.2-51.2-51.2s-51.2 20.48-51.2 51.2 20.48 51.2 51.2 51.2 51.2-20.48 51.2-51.2z m204.8 0c0-30.72-20.48-51.2-51.2-51.2s-51.2 20.48-51.2 51.2 20.48 51.2 51.2 51.2 51.2-20.48 51.2-51.2z"  horiz-adv-x="1024" />
      
      <glyph glyph-name="lianxi-66" unicode="&#58931;" d="M993.28 501.76c-10.24 30.72-35.84 51.2-71.68 56.32L696.32 588.8l-5.12 5.12-102.4 204.8c-15.36 30.72-40.96 51.2-76.8 51.2-30.72 0-61.44-20.48-76.8-51.2L332.8 588.8s-5.12 0-5.12-5.12L102.4 558.08c-35.84-5.12-61.44-25.6-71.68-56.32-10.24-30.72 0-66.56 25.6-87.04l163.84-163.84v-5.12l-40.96-230.4c-5.12-35.84 5.12-66.56 30.72-87.04 15.36-10.24 30.72-15.36 46.08-15.36 15.36 0 30.72 5.12 46.08 10.24l204.8 107.52h5.12l204.8-107.52c30.72-15.36 66.56-15.36 92.16 5.12s35.84 51.2 30.72 87.04l-40.96 230.4v5.12l117.76 117.76 46.08 46.08c30.72 20.48 40.96 56.32 30.72 87.04z"  horiz-adv-x="1024" />
      
      <glyph glyph-name="lianxi-64" unicode="&#58932;" d="M967.68 414.72c25.6 25.6 35.84 56.32 25.6 87.04-10.24 30.72-35.84 51.2-71.68 56.32L696.32 588.8l-5.12 5.12-102.4 204.8c-15.36 30.72-40.96 51.2-76.8 51.2-30.72 0-61.44-20.48-76.8-51.2L332.8 588.8s-5.12 0-5.12-5.12L102.4 558.08c-35.84-5.12-61.44-25.6-71.68-56.32-10.24-30.72 0-66.56 25.6-87.04l163.84-163.84v-5.12l-40.96-230.4c-5.12-35.84 5.12-66.56 30.72-87.04 15.36-10.24 30.72-15.36 46.08-15.36 15.36 0 30.72 5.12 46.08 10.24l204.8 107.52h5.12l204.8-107.52c30.72-15.36 66.56-15.36 92.16 5.12s35.84 51.2 30.72 87.04l-40.96 230.4v5.12l117.76 117.76 51.2 46.08z m-35.84 35.84L768 291.84c-10.24-10.24-20.48-35.84-15.36-56.32l40.96-225.28c0-15.36 0-25.6-10.24-30.72-10.24-5.12-20.48-5.12-30.72 0l-204.8 107.52c-15.36 10.24-40.96 10.24-56.32 0l-204.8-107.52c-5.12-5.12-15.36-5.12-20.48-5.12-5.12 0-10.24 0-15.36 5.12-10.24 5.12-10.24 15.36-10.24 30.72l40.96 225.28c5.12 15.36-5.12 40.96-15.36 56.32L92.16 450.56c-10.24 10.24-15.36 20.48-10.24 30.72 5.12 10.24 10.24 15.36 25.6 20.48L337.92 537.6c15.36 0 40.96 20.48 46.08 35.84l102.4 204.8c5.12 10.24 15.36 20.48 25.6 20.48s20.48-5.12 25.6-20.48l102.4-204.8c10.24-20.48 30.72-35.84 46.08-35.84l225.28-30.72c15.36 0 25.6-10.24 25.6-20.48 10.24-10.24 5.12-25.6-5.12-35.84z"  horiz-adv-x="1024" />
      
      <glyph glyph-name="lianxi-63" unicode="&#58933;" d="M967.68 476.16C942.08 686.08 768 844.8 558.08 844.8 327.68 844.8 143.36 660.48 143.36 430.08v-5.12c-35.84-35.84-92.16-102.4-92.16-148.48 0-56.32 56.32-71.68 81.92-71.68l46.08-10.24 10.24-199.68c-5.12-40.96 30.72-71.68 66.56-71.68h153.6c15.36 0 25.6 10.24 25.6 25.6 5.12 15.36-10.24 25.6-25.6 25.6H256c-10.24 0-20.48 10.24-20.48 20.48l-5.12 245.76-87.04 20.48h-5.12c-5.12 0-15.36 0-20.48 5.12-10.24 5.12-15.36 10.24-15.36 10.24 0 20.48 40.96 76.8 81.92 112.64 5.12 5.12 10.24 15.36 5.12 30.72v10.24C194.56 629.76 358.4 793.6 558.08 793.6c143.36 0 271.36-87.04 332.8-215.04 30.72-76.8 81.92-276.48-97.28-460.8 0 0-5.12-15.36 5.12-25.6 5.12-5.12 10.24-10.24 20.48-10.24h15.36s163.84 138.24 133.12 394.24zM711.68 532.48c-56.32 0-97.28-46.08-102.4-97.28v-5.12c0-15.36 5.12-30.72 15.36-51.2l-35.84-61.44-66.56 138.24c25.6 15.36 40.96 46.08 40.96 76.8 0 56.32-46.08 97.28-102.4 97.28S363.52 588.8 363.52 532.48v-5.12C368.64 471.04 409.6 430.08 460.8 430.08h10.24l87.04-174.08v-138.24h51.2v138.24l56.32 87.04c10.24-5.12 25.6-10.24 40.96-10.24 56.32 0 97.28 46.08 97.28 97.28 5.12 56.32-40.96 102.4-92.16 102.4z m0-153.6c-30.72 0-51.2 25.6-51.2 51.2 0 30.72 25.6 51.2 51.2 51.2 30.72 0 51.2-25.6 51.2-51.2s-25.6-51.2-51.2-51.2zM460.8 481.28c-30.72 0-51.2 25.6-51.2 51.2 0 30.72 25.6 51.2 51.2 51.2 30.72 0 51.2-25.6 51.2-51.2 5.12-30.72-20.48-51.2-51.2-51.2z"  horiz-adv-x="1024" />
      
      <glyph glyph-name="lianxi-58" unicode="&#58934;" d="M542.72 378.88l291.84 291.84c10.24 10.24 10.24 25.6 0 35.84-87.04 87.04-204.8 133.12-327.68 133.12-256 0-460.8-204.8-460.8-460.8s204.8-460.8 460.8-460.8c122.88 0 240.64 51.2 327.68 133.12 10.24 10.24 10.24 25.6 0 35.84l-291.84 291.84z m-61.44 0c0-5.12 5.12-10.24 5.12-15.36l291.84-291.84c-76.8-66.56-174.08-102.4-271.36-102.4-225.28 0-409.6 184.32-409.6 409.6s184.32 409.6 409.6 409.6c102.4 0 199.68-35.84 271.36-102.4L491.52 399.36c-5.12-5.12-10.24-10.24-10.24-20.48zM977.92 404.48h-194.56c-15.36 0-25.6-10.24-25.6-25.6s10.24-25.6 25.6-25.6h194.56c15.36 0 25.6 10.24 25.6 25.6s-10.24 25.6-25.6 25.6zM803.84 276.48c-10.24 10.24-25.6 10.24-35.84 0s-10.24-25.6 0-35.84l138.24-138.24c5.12-5.12 10.24-5.12 20.48-5.12s15.36 0 20.48 5.12c10.24 10.24 10.24 25.6 0 35.84l-143.36 138.24zM783.36 481.28c5.12 0 15.36 0 20.48 5.12l138.24 138.24c10.24 10.24 10.24 25.6 0 35.84s-25.6 10.24-35.84 0L768 522.24c-10.24-10.24-10.24-25.6 0-35.84 0-5.12 10.24-5.12 15.36-5.12zM573.44 640m-40.96 0a40.96 40.96 0 1 1 81.92 0 40.96 40.96 0 1 1-81.92 0Z"  horiz-adv-x="1024" />
      
      <glyph glyph-name="lianxi-62" unicode="&#58935;" d="M619.52 650.24H348.16c-15.36 0-30.72-15.36-30.72-30.72 0-20.48 15.36-35.84 35.84-35.84h271.36c15.36 0 30.72 15.36 30.72 30.72 0 20.48-15.36 35.84-35.84 35.84zM983.04 358.4l-87.04 87.04c-25.6 25.6-66.56 25.6-92.16 0l-296.96-296.96c-10.24-10.24-15.36-25.6-20.48-35.84l-10.24-92.16H250.88c-87.04 0-112.64 30.72-112.64 122.88V670.72v40.96c10.24 56.32 35.84 76.8 117.76 76.8h496.64c56.32-5.12 76.8-25.6 81.92-87.04v-179.2c0-15.36 15.36-30.72 30.72-30.72 20.48 0 35.84 15.36 35.84 35.84V670.72c0 133.12-51.2 184.32-184.32 184.32H245.76C117.76 849.92 71.68 793.6 71.68 660.48V128c5.12-128 61.44-184.32 184.32-184.32h235.52c10.24-10.24 20.48-15.36 35.84-15.36h20.48l102.4 15.36c15.36 0 25.6 10.24 35.84 20.48l296.96 296.96c25.6 30.72 25.6 71.68 0 97.28z m-343.04-348.16l-102.4-15.36 15.36 102.4 189.44 189.44 87.04-87.04-189.44-189.44z m230.4 235.52L783.36 332.8l66.56 66.56 87.04-87.04-66.56-66.56zM619.52 450.56H348.16c-15.36 0-30.72-15.36-30.72-30.72 0-20.48 15.36-35.84 35.84-35.84h271.36c15.36 0 30.72 15.36 30.72 30.72 0 20.48-15.36 35.84-35.84 35.84z"  horiz-adv-x="1024" />
      
      <glyph glyph-name="lianxi-61" unicode="&#58936;" d="M942.08 665.6c-5.12 5.12-15.36 10.24-25.6 10.24s-20.48-5.12-25.6-10.24l-465.92-465.92-25.6-20.48-20.48 20.48-240.64 240.64c-5.12 10.24-15.36 15.36-25.6 15.36-20.48 0-40.96-20.48-40.96-40.96 0-10.24 5.12-20.48 10.24-25.6l281.6-281.6 5.12-5.12v-5.12s0-5.12 5.12-5.12c10.24-10.24 15.36-10.24 30.72-10.24H409.6c10.24 0 20.48 5.12 25.6 10.24l5.12 5.12v5.12l5.12 5.12 501.76 501.76c5.12 5.12 10.24 15.36 10.24 25.6s-10.24 20.48-15.36 30.72z"  horiz-adv-x="1024" />
      
      <glyph glyph-name="lianxi-67" unicode="&#58927;" d="M839.68 537.6h-153.6s20.48 66.56 30.72 184.32c10.24 56.32-35.84 117.76-102.4 122.88h-15.36c-51.2 0-87.04-30.72-107.52-76.8l-30.72-102.4c-35.84-66.56-61.44-102.4-81.92-117.76C353.28 537.6 256 537.6 250.88 537.6H117.76C76.8 537.6 51.2 506.88 51.2 476.16v-491.52c0-35.84 25.6-61.44 66.56-61.44h665.6c97.28 0 122.88 66.56 138.24 158.72l51.2 317.44c5.12 71.68-10.24 138.24-133.12 138.24zM250.88-15.36H117.76V476.16h133.12v-491.52z m655.36 419.84l-51.2-317.44c-15.36-61.44-15.36-107.52-76.8-107.52h-460.8V476.16c46.08 0 71.68 5.12 92.16 20.48 30.72 15.36 66.56 66.56 112.64 153.6 25.6 66.56 40.96 97.28 46.08 107.52 5.12 20.48 20.48 30.72 46.08 30.72 30.72 0 46.08-30.72 46.08-51.2-15.36-107.52-30.72-168.96-30.72-168.96l-25.6-87.04h250.88c20.48 0 30.72 0 46.08-15.36s5.12-40.96 5.12-61.44z"  horiz-adv-x="1024" />
      
      <glyph glyph-name="lianxi-59" unicode="&#58928;" d="M890.88-81.92H133.12c-46.08 0-81.92 35.84-81.92 81.92V757.76c0 46.08 35.84 81.92 81.92 81.92h757.76c46.08 0 81.92-35.84 81.92-81.92v-757.76c0-46.08-35.84-81.92-81.92-81.92zM133.12 793.6c-20.48 0-35.84-15.36-35.84-35.84v-757.76c0-20.48 15.36-35.84 35.84-35.84h757.76c20.48 0 35.84 15.36 35.84 35.84V757.76c0 20.48-15.36 35.84-35.84 35.84H133.12zM829.44 256l-97.28 92.16c-5.12 5.12-15.36 10.24-20.48 10.24s-15.36-5.12-25.6-10.24c-10.24-15.36-10.24-35.84 0-46.08l40.96-40.96H665.6c-15.36 0-56.32 40.96-133.12 112.64l-5.12 5.12 5.12 5.12c71.68 76.8 112.64 112.64 133.12 112.64h66.56l-40.96-40.96c-10.24-10.24-10.24-35.84 0-46.08 5.12-5.12 15.36-10.24 20.48-10.24s15.36 5.12 20.48 10.24l97.28 92.16c10.24 10.24 10.24 30.72 0 46.08L737.28 640c-5.12 5.12-15.36 10.24-25.6 10.24s-15.36-5.12-25.6-10.24c-10.24-10.24-10.24-30.72 0-40.96l40.96-35.84H665.6c-30.72 0-102.4-66.56-174.08-138.24l-5.12-5.12-5.12 5.12C404.48 506.88 307.2 599.04 266.24 599.04h-51.2c-15.36 0-30.72-15.36-30.72-30.72s10.24-30.72 30.72-30.72h51.2c25.6 0 81.92-56.32 179.2-153.6l5.12-5.12-5.12-5.12c-92.16-92.16-148.48-153.6-179.2-153.6h-51.2c-15.36 0-30.72-15.36-30.72-30.72s15.36-30.72 30.72-30.72h51.2c40.96 0 138.24 92.16 220.16 174.08l5.12 5.12 5.12-5.12c71.68-71.68 143.36-138.24 174.08-138.24h66.56l-40.96-35.84c-10.24-10.24-10.24-30.72 0-40.96 5.12-5.12 15.36-10.24 25.6-10.24s15.36 5.12 25.6 10.24l92.16 92.16c5.12 10.24 5.12 30.72-10.24 46.08z"  horiz-adv-x="1024" />
      
      <glyph glyph-name="lianxi-68" unicode="&#58929;" d="M839.68 537.6h-153.6s20.48 66.56 30.72 184.32c10.24 56.32-35.84 117.76-102.4 122.88h-15.36c-51.2 0-87.04-30.72-107.52-76.8l-30.72-102.4c-35.84-66.56-61.44-102.4-81.92-117.76-10.24-5.12-35.84-10.24-66.56-10.24v-614.4h465.92c97.28 0 122.88 66.56 138.24 158.72l51.2 317.44c10.24 71.68-5.12 138.24-128 138.24zM250.88 537.6H117.76C76.8 537.6 51.2 506.88 51.2 476.16v-491.52c0-35.84 25.6-61.44 66.56-61.44h133.12V537.6z"  horiz-adv-x="1024" />
      
      <glyph glyph-name="tubiaoziti-51" unicode="&#58924;" d="M905.216 263.850667zM905.216 269.312zM905.216 454.997333H512c-38.229333 0-70.997333-32.768-70.997333-70.997333v-393.216c0-38.229333 32.768-70.997333 70.997333-70.997333h393.216c38.229333 0 70.997333 32.768 70.997333 70.997333V384c0 38.229333-32.768 70.997333-70.997333 70.997333z m5.461333-70.997333V-14.677333H506.538667V389.461333H910.677333v-5.461333zM582.997333 777.216V547.84h-65.536V782.677333H113.322667V378.538667H348.16v-65.536H118.784c-38.229333 0-70.997333 32.768-70.997333 70.997333V777.216c0 38.229333 32.768 70.997333 70.997333 70.997333H512c38.229333 0 70.997333-32.768 70.997333-70.997333zM1008.981333 722.602667c-10.922667 5.461333-16.384 10.922667-21.845333 10.922666-10.922667 0-16.384-5.461333-21.845333-10.922666l-49.152-49.152-16.384-16.384V815.445333L894.293333 820.906667c0 10.922667-16.384 21.845333-27.306666 27.306666h-163.84c-16.384 0-27.306667-16.384-27.306667-32.768v-5.461333c0-16.384 16.384-27.306667 32.768-27.306667H834.218667V575.146667c0-5.461333 5.461333-10.922667 10.922666-16.384 5.461333-5.461333 10.922667-10.922667 21.845334-10.922667s16.384 5.461333 21.845333 10.922667l120.149333 120.149333 5.461334 5.461333c5.461333 10.922667 0 27.306667-5.461334 38.229334zM315.392-14.677333H189.781333V192.853333c0 5.461333-5.461333 10.922667-10.922666 16.384-5.461333 5.461333-10.922667 10.922667-21.845334 10.922667s-16.384-5.461333-21.845333-10.922667L15.018667 89.088l-5.461334-5.461333c-10.922667-10.922667-5.461333-27.306667 5.461334-38.229334H20.48c5.461333-5.461333 10.922667-5.461333 16.384-5.461333 10.922667 0 16.384 5.461333 21.845333 10.922667l49.152 49.152 16.384 10.922666v-158.378666l5.461334-5.461334c0-16.384 16.384-27.306667 32.768-27.306666h163.84c16.384 0 27.306667 16.384 27.306666 32.768v5.461333c-10.922667 16.384-21.845333 27.306667-38.229333 27.306667zM866.986667 296.618667c-10.922667 0-16.384-5.461333-21.845334-10.922667l-136.533333-136.533333-5.461333-5.461334-5.461334 5.461334-92.842666 60.074666-5.461334 5.461334h-10.922666c-10.922667 0-21.845333-5.461333-27.306667-16.384-10.922667-16.384-5.461333-32.768 10.922667-43.690667l120.149333-76.458667 5.461333-5.461333h10.922667c10.922667 0 16.384 5.461333 21.845333 10.922667l158.378667 158.378666 5.461333 5.461334c5.461333 5.461333 5.461333 10.922667 5.461334 16.384 0 10.922667-5.461333 16.384-10.922667 21.845333-5.461333 10.922667-16.384 10.922667-21.845333 10.922667z"  horiz-adv-x="1024" />
      
      <glyph glyph-name="tubiaoziti-52" unicode="&#58925;" d="M901.12 727.04h-76.8v-61.44h76.8c5.12 0 10.24-5.12 10.24-10.24v-655.36c0-5.12-5.12-10.24-10.24-10.24H271.36c-5.12 0-10.24 5.12-10.24 10.24v46.08H199.68v-46.08c0-40.96 35.84-71.68 71.68-71.68h629.76c40.96 0 71.68 35.84 71.68 71.68V650.24c5.12 40.96-30.72 76.8-71.68 76.8z m-230.4-112.64c-5.12 5.12-15.36 10.24-20.48 10.24-10.24 0-15.36-5.12-20.48-10.24l-276.48-276.48-107.52 107.52c-5.12 10.24-15.36 10.24-20.48 10.24-15.36 0-30.72-15.36-30.72-30.72 0-10.24 5.12-15.36 10.24-20.48L327.68 281.6l5.12-5.12c5.12-5.12 15.36-10.24 20.48-10.24 10.24 0 15.36 5.12 20.48 10.24l5.12 5.12 291.84 291.84c5.12 5.12 10.24 15.36 10.24 20.48 0 5.12-5.12 10.24-10.24 20.48zM752.64 783.36c5.12 0 10.24-5.12 10.24-10.24v-655.36c0-5.12-5.12-10.24-10.24-10.24H122.88c-5.12 0-10.24 5.12-10.24 10.24V773.12c0 5.12 5.12 10.24 10.24 10.24h629.76m0 61.44H122.88C81.92 844.8 46.08 808.96 46.08 773.12v-655.36c0-40.96 35.84-71.68 71.68-71.68h629.76c40.96 0 71.68 35.84 71.68 71.68V773.12c5.12 35.84-25.6 71.68-66.56 71.68z"  horiz-adv-x="1024" />
      
      <glyph glyph-name="sousuo" unicode="&#58893;" d="M480 768a352 352 0 0 0 270.528-577.28l138.24-138.24c10.752-10.496 9.28-29.312-3.2-42.112-12.8-12.48-31.616-13.888-42.048-3.136l-138.24 138.24A352 352 0 1 0 480 768z m0-63.36c-182.72 0-288.128-147.2-288.128-288.64s105.088-289.28 288-289.28c182.848 0 288 147.84 288 289.28 0 141.44-105.152 288.64-287.872 288.64z"  horiz-adv-x="1024" />
      
      <glyph glyph-name="defen" unicode="&#59023;" d="M88.576 257.584762c-11.026286 1.938286-14.134857 16.530286-12.946286 23.332571 1.206857 6.838857 9.124571 19.474286 14.628572 18.486857 276.516571 84.772571 564.278857 104.265143 836.918857 70.253714l-1.206857-6.802285c22.070857-3.894857 50.834286-1.956571 72.905143-5.851429l-2.413715-13.622857c-281.728 14.555429-563.986286-5.942857-841.216-62.445714-20.132571-17.517714-43.410286-20.443429-66.669714-23.369143z m-55.936 136.210285C308.114286 472.606476 595.309714 489.027047 867.84 454.393904l-1.133714-6.528c27.556571-4.845714 50.779429-2.230857 72.832-6.125714l-2.285715-13.019428c-281.472 16.091429-563.2-1.28-839.588571-53.101715-24.374857-9.142857-42.057143-12.708571-65.261714-15.305143l-5.485715 0.969143c-5.540571 0.987429-9.892571 8.429714-7.606857 21.449143l13.330286 11.062857z"  horiz-adv-x="1024" />
      
      <glyph glyph-name="tubiaoziti-48" unicode="&#58923;" d="M547.84-30.72h-20.48c-35.84 0-66.56 5.12-102.4 15.36-215.04 56.32-343.04 276.48-286.72 491.52 46.08 174.08 204.8 302.08 389.12 302.08 35.84 0 66.56-5.12 102.4-15.36 184.32-46.08 307.2-220.16 296.96-409.6 0-10.24 0-20.48-5.12-35.84 0-15.36 10.24-30.72 30.72-35.84 15.36 0 25.6 10.24 30.72 25.6l5.12 40.96c10.24 215.04-133.12 414.72-343.04 471.04-40.96 10.24-76.8 15.36-117.76 15.36-209.92 0-394.24-143.36-445.44-343.04-66.56-245.76 81.92-496.64 327.68-563.2 35.84-10.24 76.8-15.36 117.76-15.36h20.48c10.24 0 25.6 10.24 25.6 20.48 0 15.36-5.12 30.72-25.6 35.84zM988.16 220.16c-5.12 5.12-15.36 10.24-20.48 10.24-10.24 0-15.36-5.12-25.6-10.24l-209.92-235.52-117.76 107.52c-5.12 5.12-15.36 10.24-20.48 10.24s-15.36-5.12-20.48-10.24c-5.12-5.12-10.24-15.36-10.24-20.48 0-10.24 5.12-15.36 10.24-20.48L716.8-76.8c5.12-5.12 15.36-10.24 25.6-10.24s15.36 5.12 25.6 10.24l225.28 256c5.12 5.12 10.24 15.36 10.24 20.48-5.12 10.24-5.12 15.36-15.36 20.48zM532.48 209.92c15.36 0 25.6 10.24 25.6 25.6V547.84v10.24l-15.36 15.36c-5.12 5.12-15.36 5.12-20.48 0-5.12 0-5.12-5.12-10.24-5.12L430.08 486.4c-10.24-10.24-10.24-25.6 0-40.96s25.6-10.24 40.96 0l35.84 35.84v-245.76c-5.12-15.36 10.24-25.6 25.6-25.6z"  horiz-adv-x="1024" />
      
      <glyph glyph-name="tubiaoziti-47" unicode="&#58919;" d="M834.56 701.44c-10.24 10.24-30.72 10.24-40.96 0-10.24-10.24-10.24-30.72 0-40.96 76.8-76.8 117.76-179.2 117.76-286.72 0-220.16-179.2-399.36-399.36-399.36s-399.36 179.2-399.36 399.36c0 107.52 40.96 209.92 117.76 286.72 10.24 10.24 15.36 30.72 0 40.96s-25.6 10.24-40.96 0C102.4 614.4 51.2 496.64 51.2 373.76c0-256 204.8-460.8 460.8-460.8s460.8 204.8 460.8 460.8c0 122.88-51.2 240.64-138.24 327.68zM512 343.04c15.36 0 30.72 15.36 30.72 30.72V803.84c0 15.36-15.36 30.72-30.72 30.72s-30.72-15.36-30.72-30.72v-430.08c0-20.48 15.36-30.72 30.72-30.72z"  horiz-adv-x="1024" />
      
      <glyph glyph-name="tubiaoziti-49" unicode="&#58921;" d="M947.2 399.36c-15.36 0-25.6-10.24-25.6-25.6 0-225.28-184.32-409.6-409.6-409.6s-409.6 184.32-409.6 409.6 184.32 409.6 409.6 409.6c122.88 0 245.76-56.32 322.56-153.6h-92.16c-15.36 0-25.6-10.24-25.6-25.6s10.24-25.6 25.6-25.6h138.24c15.36 0 25.6 10.24 25.6 25.6V737.28c0 15.36-10.24 25.6-25.6 25.6s-25.6-10.24-25.6-25.6v-56.32c-35.84 40.96-81.92 76.8-133.12 102.4-66.56 30.72-138.24 51.2-209.92 51.2-61.44 0-122.88-15.36-179.2-40.96s-102.4-56.32-148.48-97.28c-40.96-40.96-71.68-92.16-97.28-143.36C61.44 491.52 51.2 435.2 51.2 373.76s10.24-122.88 35.84-179.2c25.6-56.32 56.32-102.4 97.28-148.48 40.96-40.96 92.16-76.8 148.48-97.28 56.32-25.6 117.76-35.84 179.2-35.84s122.88 10.24 179.2 35.84c56.32 25.6 102.4 56.32 148.48 97.28 40.96 40.96 76.8 92.16 97.28 148.48 25.6 56.32 35.84 117.76 35.84 179.2 0 15.36-10.24 25.6-25.6 25.6zM512 619.52c51.2 0 87.04-40.96 87.04-87.04 0-15.36 10.24-25.6 25.6-25.6s25.6 10.24 25.6 25.6c0 76.8-61.44 138.24-138.24 138.24-76.8 0-138.24-61.44-138.24-138.24v-87.04c-51.2 0-92.16-40.96-92.16-92.16v-138.24c0-51.2 40.96-92.16 92.16-92.16h276.48c51.2 0 92.16 40.96 92.16 92.16v138.24c0 51.2-40.96 92.16-92.16 92.16H424.96V532.48c0 46.08 35.84 87.04 87.04 87.04z m179.2-409.6c0-25.6-15.36-40.96-40.96-40.96H373.76c-25.6 0-40.96 15.36-40.96 40.96v138.24c0 25.6 15.36 40.96 40.96 40.96h276.48c25.6 0 40.96-15.36 40.96-40.96v-138.24z"  horiz-adv-x="1024" />
      
      <glyph glyph-name="tubiaoziti-50" unicode="&#58922;" d="M76.8-40.96c-15.36 5.12-30.72 15.36-40.96 30.72-15.36 25.6-15.36 61.44 0 112.64 20.48 66.56 138.24 148.48 138.24 153.6 15.36 10.24 35.84 10.24 51.2 10.24H286.72c35.84 5.12 66.56 46.08 71.68 56.32 5.12 10.24 5.12 40.96 5.12 46.08 0 5.12-5.12 15.36-5.12 15.36-30.72 20.48-56.32 92.16-56.32 92.16-20.48 20.48-30.72 40.96-25.6 61.44 0 20.48 15.36 35.84 15.36 35.84 0 10.24-5.12 87.04 0 107.52v5.12c5.12 20.48 10.24 56.32 51.2 97.28 46.08 46.08 122.88 51.2 122.88 51.2h66.56s81.92 0 122.88-51.2c40.96-46.08 46.08-81.92 51.2-97.28v-5.12c5.12-15.36 0-97.28 0-102.4 0-5.12 15.36-15.36 20.48-35.84 0-20.48-5.12-40.96-25.6-61.44 0 0-30.72-71.68-56.32-97.28 0 0-5.12-10.24-10.24-15.36v-20.48c-20.48-10.24-35.84-25.6-56.32-40.96v10.24c-10.24 20.48-5.12 76.8 0 81.92 5.12 5.12 35.84 51.2 35.84 56.32 10.24 0 25.6 30.72 25.6 30.72 20.48 25.6 25.6 40.96 25.6 56.32 0 10.24-10.24 15.36-10.24 20.48-5.12 5.12-5.12 35.84 0 46.08v15.36c0 20.48 0 40.96-10.24 92.16-10.24 61.44-112.64 76.8-117.76 76.8h-51.2c-5.12-5.12-107.52-20.48-117.76-81.92-10.24-51.2-10.24-71.68-10.24-92.16v-61.44s-10.24-5.12-10.24-20.48c0-10.24 0-30.72 25.6-56.32 0 0 10.24-25.6 15.36-35.84 5.12-5.12 30.72-51.2 35.84-56.32 5.12-5.12 10.24-56.32 0-81.92-5.12-20.48-35.84-81.92-107.52-92.16-25.6-5.12-40.96-5.12-56.32-5.12-25.6 0-35.84-5.12-51.2-15.36-25.6-15.36-97.28-76.8-102.4-112.64l-5.12-15.36c-5.12-25.6-10.24-51.2 15.36-56.32 25.6-5.12 261.12-5.12 307.2-5.12h133.12c10.24-15.36 20.48-30.72 30.72-40.96H76.8zM788.48-76.8c-117.76 0-215.04 92.16-215.04 199.68s97.28 199.68 215.04 199.68c117.76 0 215.04-92.16 215.04-199.68-5.12-107.52-102.4-199.68-215.04-199.68z m-153.6 250.88c-5.12-15.36-10.24-35.84-10.24-51.2 0-87.04 71.68-153.6 158.72-153.6 46.08 0 92.16 20.48 122.88 56.32l-271.36 148.48z m153.6 102.4c-46.08 0-87.04-20.48-117.76-51.2l266.24-148.48c10.24 15.36 10.24 30.72 10.24 51.2 0 76.8-71.68 148.48-158.72 148.48z"  horiz-adv-x="1024" />
      
      <glyph glyph-name="tubiaoziti-35" unicode="&#58912;" d="M875.52 844.8c51.2 0 97.28-46.08 97.28-97.28v-133.12c0-20.48-15.36-30.72-30.72-30.72h-97.28v-491.52c0-92.16-71.68-163.84-163.84-163.84h-460.8C122.88-76.8 51.2-5.12 51.2 87.04v66.56c0 20.48 15.36 30.72 30.72 30.72h97.28V680.96C184.32 773.12 256 844.8 348.16 844.8h527.36z m-35.84-97.28v-97.28h66.56V747.52c0 20.48-15.36 30.72-30.72 30.72s-35.84-15.36-35.84-30.72z m-66.56-133.12V778.24H348.16c-56.32 0-97.28-46.08-97.28-97.28v-491.52h327.68c20.48 0 30.72-15.36 30.72-30.72v-66.56c0-46.08 30.72-81.92 71.68-97.28h5.12c46.08 5.12 87.04 51.2 87.04 97.28V614.4z m-230.4-491.52H117.76v-30.72c0-56.32 46.08-97.28 97.28-97.28h363.52c-20.48 25.6-30.72 61.44-30.72 97.28v30.72z m-194.56 460.8c-20.48 0-30.72 15.36-30.72 30.72s15.36 30.72 30.72 30.72h261.12c20.48 0 30.72-15.36 30.72-30.72s-15.36-30.72-30.72-30.72H348.16z m0-199.68c-20.48 0-30.72 15.36-30.72 30.72s15.36 30.72 30.72 30.72h133.12c15.36 5.12 30.72-10.24 30.72-30.72s-15.36-30.72-30.72-30.72H348.16z"  horiz-adv-x="1024" />
      
      <glyph glyph-name="tubiaoziti-34" unicode="&#58918;" d="M512 245.76c-20.48 0-35.84 15.36-35.84 35.84V578.56c0 20.48 15.36 35.84 35.84 35.84 20.48 0 35.84-15.36 35.84-35.84V281.6c0-20.48-15.36-35.84-35.84-35.84z m-56.32-97.28c0-30.72 25.6-56.32 56.32-56.32s56.32 25.6 56.32 56.32-25.6 56.32-56.32 56.32-56.32-25.6-56.32-56.32zM901.12-51.2H122.88c-35.84 0-66.56 20.48-87.04 51.2s-15.36 66.56 0 97.28L424.96 768c15.36 30.72 51.2 51.2 87.04 51.2s66.56-20.48 87.04-51.2l389.12-670.72c15.36-30.72 15.36-66.56 0-97.28-20.48-30.72-51.2-51.2-87.04-51.2z m-409.6 783.36L102.4 61.44c-5.12-10.24 0-20.48 0-25.6 0-5.12 10.24-10.24 20.48-10.24h778.24c15.36 0 20.48 10.24 20.48 10.24 0 5.12 5.12 15.36 0 25.6L532.48 732.16c-5.12 10.24-15.36 10.24-20.48 10.24s-15.36 0-20.48-10.24z"  horiz-adv-x="1024" />
      
      <glyph glyph-name="guanwang-46" unicode="&#58920;" d="M967.68 199.68C788.48 455.68 773.12 870.4 773.12 875.52c0 10.24-10.24 20.48-20.48 20.48-5.12 0-15.36-5.12-20.48-10.24-20.48-25.6-92.16-92.16-143.36-92.16C537.6 793.6 465.92 860.16 445.44 885.76 435.2 896 424.96 896 419.84 896c-10.24-5.12-15.36-10.24-15.36-20.48 0-5.12-20.48-419.84-194.56-675.84-5.12-5.12-5.12-10.24-5.12-20.48 0-5.12 5.12-10.24 10.24-15.36 0 0 168.96-76.8 286.72-209.92-25.6 10.24-46.08 20.48-76.8 25.6-56.32 15.36-133.12 40.96-189.44 81.92-92.16 71.68-117.76 199.68-61.44 373.76 10.24 40.96 30.72 81.92 46.08 117.76 15.36 35.84 35.84 87.04 10.24 128-10.24 20.48-40.96 51.2-87.04 40.96-56.32-10.24-102.4-97.28-107.52-107.52-10.24-10.24 0-25.6 10.24-30.72 10.24-5.12 20.48 0 25.6 10.24 15.36 30.72 51.2 76.8 71.68 81.92 30.72 5.12 40.96-15.36 46.08-15.36 15.36-25.6 0-61.44-15.36-92.16-15.36-35.84-30.72-76.8-40.96-117.76-61.44-199.68-35.84-343.04 76.8-424.96 61.44-46.08 143.36-76.8 204.8-92.16 56.32-15.36 102.4-30.72 138.24-56.32 5.12-5.12 15.36 0 15.36 5.12v404.48c-20.48 10.24-35.84 30.72-35.84 51.2 0 30.72 25.6 56.32 51.2 56.32 30.72 0 56.32-25.6 56.32-56.32 0-20.48-15.36-40.96-35.84-51.2v-394.24c0-10.24 10.24-10.24 15.36-5.12 112.64 168.96 332.8 271.36 332.8 276.48 5.12 5.12 10.24 10.24 10.24 15.36 10.24 5.12 10.24 15.36 5.12 20.48z"  horiz-adv-x="1024" />
      
      <glyph glyph-name="zuo" unicode="&#58937;" d="M511.583037-95.593871M350.665818 385.055506L350.665818 385.055506l407.552023 407.546565c15.746363 15.774742 15.746363 41.362309 0 57.157791-15.799847 15.774742-41.386323 15.774742-57.181805 0L268.176969 416.851677c-1.181031-0.925615-2.336959-1.946192-3.419753-3.033353-15.774742-15.795482-15.774742-41.381957 0-57.157791l435.441619-435.445986c15.795482-15.79439 41.381957-15.79439 57.1567 0 15.771468 15.751821 15.771468 41.338295 0 57.133777L350.665818 385.055506 350.665818 385.055506zM350.665818 385.055506"  horiz-adv-x="1024" />
      
      <glyph glyph-name="you" unicode="&#59283;" d="M712.248889 397.653333L322.309689 802.884267c-14.7456 14.7456-14.7456 38.775467 0 53.521066 14.7456 14.7456 38.229333 14.7456 52.974933 0l427.6224-431.991466c14.7456-14.7456 14.7456-38.775467 0-53.521067l-427.6224-431.991467c-14.7456-14.7456-38.229333-14.7456-52.974933 0-14.7456 14.7456-14.7456 38.775467 0 53.521067l389.9392 405.230933z"  horiz-adv-x="1024" />
      
      <glyph glyph-name="fanye-02" unicode="&#58900;" d="M772.468828 410.812968L297.496259 885.785536c-10.214464 10.214464-30.643392 10.214464-45.965087 0-10.214464-10.214464-10.214464-30.643392 0-40.857855l449.436409-459.650873-454.543641-459.650873c-10.214464-10.214464-10.214464-30.643392 0-45.965087 10.214464-10.214464 30.643392-10.214464 45.965087 0l474.972569 474.972568c5.107232 5.107232 10.214464 20.428928 10.214464 25.53616 5.107232 10.214464 5.107232 25.53616-5.107232 30.643392z"  horiz-adv-x="1024" />
      
      <glyph glyph-name="fanye-01" unicode="&#58894;" d="M240.64 384c0-5.12 5.12-20.48 10.24-25.6l476.16-476.16c10.24-10.24 30.72-10.24 46.08 0 10.24 10.24 10.24 30.72 0 46.08l-455.68 460.8 450.56 460.8c10.24 10.24 10.24 30.72 0 46.08-10.24 10.24-30.72 10.24-46.08 0L250.88 409.6c-10.24-5.12-10.24-20.48-10.24-25.6z"  horiz-adv-x="1024" />
      
      <glyph glyph-name="icon-bainji" unicode="&#58926;" d="M349.805776 337.531026c-0.558-0.743347-1.116982-1.513171-1.372936-2.443826L305.085334 170.798758c-2.514434-9.568382 0.068646-19.881092 6.914693-27.145883 5.122031-5.168123 11.871972-8.007158 19.066156-8.007158 2.373218 0 4.747416 0.27851 7.075522 0.929675l157.770919 44.489004c0.255955 0 0.372654-0.232419 0.558001-0.232419 1.817178 0 3.60984 0.675681 4.935704 2.117263l421.886505 436.111101c12.525098 12.967379 19.390757 30.637063 19.390757 49.86601 0 21.791433-8.939773 43.55835-24.582416 59.714862l-39.83279 41.252798c-15.644604 16.179068-36.737801 25.445404-57.781965 25.445405-18.600339 0-35.689466-7.10102-48.259675-20.044863l-421.794322-436.250356c-0.44032-0.418746-0.323621-1.023818-0.626647-1.513171z m532.189149 324.249194l-41.904944-43.300434-67.908347 71.353435 41.29889 42.696343c6.518503 6.797994 19.183836 5.796731 26.679085-1.978989l39.877901-41.252799c4.145285-4.307096 6.518503-10.009682 6.518504-15.667159-0.022555-4.633659-1.605354-8.84661-4.561089-11.850397zM424.816124 330.686941l304.412233 314.750439 67.978955-71.399527L493.351119 259.892486l-68.534995 70.794455m-55.45582-127.621249l22.001297 83.483323 58.690064-60.669053-80.691361-22.81427M908.719121 488.947214c-15.969205 0-29.053283-13.433196-29.122911-30.173207v-406.590038c0-21.323655-16.73903-38.644221-37.388965-38.644221H176.949234c-20.626399 0-37.434075 17.320566-37.434076 38.644221V715.837606c0 21.348172 16.808657 38.669718 37.434076 38.669718h428.451099c16.06433 0 29.100355 13.501843 29.100355 30.100638 0 16.575258-13.036025 30.078081-29.100355 30.078081H172.502883c-50.2622 0-91.189416-42.276616-91.189417-94.285387v-672.823868c0-52.009751 40.927217-94.261851 91.189417-94.261851H846.608485c50.308291 0 91.188435 42.2521 91.188435 94.261851v411.410024c-0.047072 16.528186-13.106633 29.960402-29.077799 29.960402z"  horiz-adv-x="1024" />
      
      <glyph glyph-name="fuzhi_fuzhi" unicode="&#59093;" d="M848.418133 714.9568h-530.8416c-75.3664 0-135.9872-61.166933-135.9872-135.9872v-530.8416c0-75.3664 61.166933-135.9872 135.9872-135.9872h530.8416c75.3664 0 135.9872 61.166933 135.9872 135.9872v530.8416c0 74.820267-61.166933 135.9872-135.9872 135.9872z m75.3664-667.374933c0-41.506133-33.860267-75.3664-75.3664-75.3664h-530.8416c-41.506133 0-75.3664 33.860267-75.3664 75.3664v530.8416c0 41.506133 33.860267 75.3664 75.3664 75.3664h530.8416c41.506133 0 75.3664-33.860267 75.3664-75.3664v-530.8416zM796.535467 827.460267c-1.6384 16.384-14.7456 28.945067-30.583467 28.945066h-578.3552c-39.867733 0-77.0048-15.291733-104.8576-43.144533-27.8528-27.8528-43.144533-64.989867-43.144533-104.8576v-576.7168c0-16.930133 13.653333-30.583467 30.583466-30.583467s30.583467 13.653333 30.583467 30.583467V708.4032c0 49.152 39.867733 89.019733 89.019733 89.019733h576.7168c16.384 0 30.037333 13.653333 30.037334 30.037334zM761.0368 342.493867h-149.0944v149.0944c0 16.930133-13.653333 30.583467-30.583467 30.583466s-30.583467-13.653333-30.583466-30.583466v-149.0944H402.773333c-16.930133 0-30.583467-13.653333-30.583466-30.583467 0-17.476267 12.561067-30.583467 30.583466-30.583467h149.0944V132.232533c0-16.930133 13.653333-30.583467 30.583467-30.583466s30.583467 13.653333 30.583467 30.583466v149.0944h149.0944c16.930133 0 30.583467 13.653333 30.583466 30.583467-1.092267 17.476267-14.7456 30.583467-31.675733 30.583467z"  horiz-adv-x="1024" />
      
      <glyph glyph-name="shanchu" unicode="&#58959;" d="M820.224 570.662788a34.909091 34.909091 0 0 0 34.909091-34.909091V37.624242a121.157818 121.157818 0 0 0-121.018182-121.018182H305.408a121.157818 121.157818 0 0 0-121.018182 121.018182V535.730424a34.909091 34.909091 0 0 0 69.818182 0V37.624242c0-28.229818 22.970182-51.2 51.2-51.2h428.683636c28.253091 0 51.2 22.970182 51.2 51.2V535.730424a34.909091 34.909091 0 0 0 34.909091 34.909091z m-409.367273-48.430546a34.909091 34.909091 0 0 0 34.909091-34.909091v-390.865454a34.909091 34.909091 0 1 0-69.818182 0V487.299878a34.909091 34.909091 0 0 0 34.909091 34.909091z m217.809455 0a34.909091 34.909091 0 0 0 34.909091-34.909091v-390.865454a34.909091 34.909091 0 1 0-69.818182 0V487.299878a34.909091 34.909091 0 0 0 34.909091 34.909091zM623.988364 870.787878a103.005091 103.005091 0 0 0 102.888727-102.888727V731.616969c0-11.636364-2.373818-22.644364-5.934546-33.070545h167.307637a34.909091 34.909091 0 0 0 0-69.818182H151.272727a34.909091 34.909091 0 1 0 0 69.818182h167.307637a101.259636 101.259636 0 0 0-5.934546 33.047273V767.922424a103.005091 103.005091 0 0 0 102.888727 102.865454z m0-69.818181h-208.453819c-18.245818 0-33.070545-14.824727-33.070545-33.070546V731.616969c0-18.222545 14.824727-33.070545 33.070545-33.070545h208.453819c18.222545 0 33.070545 14.848 33.070545 33.047273V767.922424c0 18.245818-14.848 33.047273-33.070545 33.047273z"  horiz-adv-x="1024" />
      
      <glyph glyph-name="a-16ri-02" unicode="&#58913;" d="M916.48 896H220.16C143.36 896 71.68 829.44 71.68 747.52v-655.36H35.84c-20.48 0-35.84-15.36-35.84-35.84v-71.68C0-76.8 51.2-128 112.64-128h660.48c56.32 0 102.4 51.2 102.4 107.52V675.84h107.52c25.6 0 40.96 15.36 40.96 35.84V783.36C1024 844.8 977.92 896 916.48 896zM112.64-56.32c-20.48 0-35.84 15.36-35.84 35.84v35.84H665.6v-30.72c0-15.36 5.12-25.6 5.12-40.96H112.64z m691.2 107.52v-71.68c0-20.48-15.36-35.84-30.72-35.84H768c-20.48 0-30.72 20.48-30.72 40.96v71.68c0 20.48-15.36 35.84-35.84 35.84H148.48V747.52c0 40.96 35.84 76.8 76.8 76.8h588.8c-5.12-10.24-5.12-25.6-5.12-35.84v-71.68l-5.12-665.6z m148.48 696.32h-71.68v40.96c0 20.48 15.36 35.84 30.72 35.84h5.12c20.48 0 30.72-20.48 30.72-40.96v-35.84zM460.8 670.72c-40.96 0-81.92-15.36-107.52-40.96-25.6-30.72-46.08-71.68-46.08-112.64 0-15.36 10.24-25.6 25.6-25.6s25.6 15.36 25.6 25.6c0 25.6 10.24 56.32 30.72 76.8 20.48 20.48 51.2 30.72 76.8 25.6 51.2-5.12 92.16-46.08 92.16-97.28 0-40.96-15.36-76.8-51.2-92.16-40.96-20.48-71.68-61.44-76.8-107.52 0-5.12 0-15.36 5.12-20.48 5.12-5.12 10.24-10.24 20.48-10.24s20.48 10.24 25.6 20.48c5.12 30.72 25.6 56.32 51.2 71.68 5.12 0 5.12 5.12 10.24 5.12l-5.12 5.12 5.12-5.12h5.12l5.12 5.12 5.12 5.12 5.12 5.12 5.12 5.12-5.12 5.12h5.12l5.12 10.24c15.36 25.6 20.48 51.2 20.48 81.92 15.36 97.28-51.2 158.72-133.12 163.84zM460.8 271.36c-15.36 0-30.72-15.36-30.72-30.72s15.36-30.72 30.72-30.72 30.72 15.36 30.72 30.72-15.36 30.72-30.72 30.72z"  horiz-adv-x="1024" />
      
      <glyph glyph-name="a-16ri-03" unicode="&#58914;" d="M399.36 399.36H138.24C87.04 399.36 51.2 440.32 51.2 486.4V752.64c0 46.08 35.84 87.04 87.04 87.04h266.24c46.08 0 87.04-35.84 87.04-87.04V486.4c-5.12-46.08-46.08-87.04-92.16-87.04zM138.24 773.12c-10.24 0-20.48-10.24-20.48-20.48V486.4c0-10.24 10.24-20.48 20.48-20.48h266.24c10.24 0 20.48 10.24 20.48 20.48V752.64c0 10.24-10.24 20.48-20.48 20.48H138.24zM399.36-87.04H138.24c-46.08 0-87.04 35.84-87.04 87.04v266.24c0 46.08 35.84 87.04 87.04 87.04h266.24c46.08 0 87.04-35.84 87.04-87.04v-266.24c-5.12-46.08-46.08-87.04-92.16-87.04z m-261.12 373.76c-10.24 0-20.48-10.24-20.48-20.48v-266.24c0-10.24 10.24-20.48 20.48-20.48h266.24c10.24 0 20.48 10.24 20.48 20.48v266.24c0 10.24-10.24 20.48-20.48 20.48H138.24zM885.76 399.36h-266.24c-46.08 0-87.04 35.84-87.04 87.04V752.64c0 46.08 35.84 87.04 87.04 87.04h266.24c46.08 0 87.04-35.84 87.04-87.04V486.4c0-46.08-35.84-87.04-87.04-87.04z m-261.12 373.76c-10.24 0-20.48-10.24-20.48-20.48V486.4c0-10.24 10.24-20.48 20.48-20.48h266.24c10.24 0 20.48 10.24 20.48 20.48V752.64c0 10.24-10.24 20.48-20.48 20.48h-266.24zM885.76-87.04h-266.24c-46.08 0-87.04 35.84-87.04 87.04v266.24c0 46.08 35.84 87.04 87.04 87.04h266.24c46.08 0 87.04-35.84 87.04-87.04v-266.24c0-46.08-35.84-87.04-87.04-87.04z m-261.12 373.76c-10.24 0-20.48-10.24-20.48-20.48v-266.24c0-10.24 10.24-20.48 20.48-20.48h266.24c10.24 0 20.48 10.24 20.48 20.48v266.24c0 10.24-10.24 20.48-20.48 20.48h-266.24z"  horiz-adv-x="1024" />
      
      <glyph glyph-name="a-16ri-05" unicode="&#58915;" d="M952.32 716.8H281.6c-25.6 0-46.08 20.48-46.08 46.08s20.48 46.08 46.08 46.08h670.72c25.6 0 46.08-20.48 46.08-46.08s-20.48-46.08-46.08-46.08zM998.4 384c0 25.6-20.48 46.08-46.08 46.08H281.6c-25.6 0-46.08-20.48-46.08-46.08s20.48-46.08 46.08-46.08h670.72c25.6 0 46.08 20.48 46.08 46.08zM998.4 5.12c0 25.6-20.48 46.08-46.08 46.08H281.6c-25.6 0-46.08-20.48-46.08-46.08s20.48-46.08 46.08-46.08h670.72c25.6 0 46.08 20.48 46.08 46.08zM153.6 762.88c0 25.6-20.48 46.08-46.08 46.08h-35.84c-25.6 0-46.08-20.48-46.08-46.08s20.48-46.08 46.08-46.08h35.84c25.6 0 46.08 20.48 46.08 46.08zM153.6 384c0 25.6-20.48 46.08-46.08 46.08h-35.84c-15.36 0-30.72-10.24-40.96-20.48-10.24-15.36-10.24-30.72 0-46.08 10.24-15.36 20.48-20.48 40.96-20.48h35.84c25.6-5.12 46.08 15.36 46.08 40.96zM153.6 5.12c0 25.6-20.48 46.08-46.08 46.08h-35.84c-25.6 0-46.08-20.48-46.08-46.08s20.48-46.08 46.08-46.08h35.84c25.6 0 46.08 20.48 46.08 46.08z"  horiz-adv-x="1024" />
      
      <glyph glyph-name="a-16ri-01" unicode="&#58916;" d="M916.48 896H220.16C143.36 896 71.68 829.44 71.68 747.52v-655.36H35.84c-20.48 0-35.84-15.36-35.84-35.84v-71.68C0-76.8 51.2-128 112.64-128h660.48c56.32 0 102.4 51.2 102.4 107.52V675.84h107.52c25.6 0 40.96 15.36 40.96 35.84V783.36C1024 844.8 977.92 896 916.48 896zM112.64-56.32c-20.48 0-35.84 15.36-35.84 35.84v35.84H665.6v-30.72c0-15.36 5.12-25.6 5.12-40.96H112.64z m691.2 107.52v-71.68c0-20.48-15.36-35.84-30.72-35.84H768c-20.48 0-30.72 20.48-30.72 40.96v71.68c0 20.48-15.36 35.84-35.84 35.84H148.48V747.52c0 40.96 35.84 76.8 76.8 76.8h588.8c-5.12-10.24-5.12-25.6-5.12-35.84v-71.68l-5.12-665.6z m148.48 696.32h-71.68v40.96c0 20.48 15.36 35.84 30.72 35.84h5.12c20.48 0 30.72-20.48 30.72-40.96v-35.84zM250.88 563.2c92.16 0 128-46.08 168.96-102.4 10.24 10.24 15.36 25.6 25.6 35.84-15.36 25.6-35.84 51.2-56.32 66.56-40.96 30.72-87.04 46.08-138.24 46.08-15.36 0-25.6-10.24-25.6-20.48 0-15.36 10.24-25.6 25.6-25.6zM650.24 409.6c-10.24 10.24-25.6 10.24-30.72 0-10.24-10.24-10.24-25.6 0-30.72l20.48-20.48c-71.68 0-112.64 35.84-143.36 81.92-15.36-5.12-15.36-15.36-20.48-20.48-5.12-5.12-10.24-10.24-15.36-20.48 10.24-15.36 25.6-30.72 40.96-40.96 35.84-25.6 76.8-40.96 128-46.08l-15.36-15.36c-10.24-10.24-10.24-25.6 0-30.72 5.12-5.12 10.24-5.12 15.36-5.12 5.12 0 10.24 0 15.36 5.12l51.2 51.2c5.12 5.12 5.12 10.24 5.12 15.36 0 5.12 0 15.36-5.12 20.48l-46.08 56.32zM650.24 634.88c-10.24 10.24-25.6 10.24-30.72 0-10.24-10.24-10.24-25.6 0-30.72l15.36-15.36c-51.2 0-92.16-15.36-128-46.08-35.84-25.6-56.32-56.32-76.8-87.04-40.96-61.44-76.8-117.76-174.08-117.76-10.24 0-20.48-10.24-20.48-20.48s10.24-20.48 20.48-20.48c56.32 0 97.28 15.36 138.24 46.08 30.72 25.6 56.32 56.32 76.8 92.16 35.84 51.2 71.68 102.4 163.84 107.52l-20.48-20.48c-10.24-10.24-10.24-25.6 0-30.72 5.12-5.12 10.24-5.12 20.48-5.12 5.12 0 10.24 0 15.36 5.12l51.2 51.2c5.12 5.12 10.24 15.36 5.12 20.48 0 5.12 0 10.24-5.12 15.36l-51.2 56.32z"  horiz-adv-x="1024" />
      
      <glyph glyph-name="a-16ri-04" unicode="&#58917;" d="M936.96 696.32h-363.52c-15.36 0-30.72 15.36-30.72 30.72s15.36 30.72 30.72 30.72h363.52c15.36 0 30.72-15.36 30.72-30.72s-10.24-30.72-30.72-30.72z m0-209.92h-363.52c-15.36 0-30.72 15.36-30.72 30.72s15.36 30.72 30.72 30.72h363.52c15.36 0 30.72-15.36 30.72-30.72s-10.24-30.72-30.72-30.72z m0-286.72h-363.52c-15.36 0-30.72 15.36-30.72 30.72s15.36 30.72 30.72 30.72h363.52c15.36 0 30.72-15.36 30.72-30.72s-10.24-30.72-30.72-30.72z m0-209.92h-363.52c-15.36 0-30.72 15.36-30.72 30.72s15.36 30.72 30.72 30.72h363.52c15.36 0 30.72-15.36 30.72-30.72s-10.24-30.72-30.72-30.72zM409.6 399.36H143.36c-46.08 0-87.04 40.96-87.04 87.04V752.64c0 46.08 35.84 87.04 87.04 87.04H409.6c46.08 0 87.04-35.84 87.04-87.04V486.4c-5.12-46.08-40.96-87.04-87.04-87.04zM143.36 773.12c-10.24 0-20.48-10.24-20.48-20.48V486.4c0-10.24 10.24-20.48 20.48-20.48H409.6c10.24 0 20.48 10.24 20.48 20.48V752.64c0 10.24-10.24 20.48-20.48 20.48H143.36zM409.6-87.04H143.36c-46.08 0-87.04 35.84-87.04 87.04v266.24c0 46.08 35.84 87.04 87.04 87.04H409.6c46.08 0 87.04-35.84 87.04-87.04v-266.24c-5.12-46.08-40.96-87.04-87.04-87.04z m-266.24 373.76c-10.24 0-20.48-10.24-20.48-20.48v-266.24c0-10.24 10.24-20.48 20.48-20.48H409.6c10.24 0 20.48 10.24 20.48 20.48v266.24c0 10.24-10.24 20.48-20.48 20.48H143.36z"  horiz-adv-x="1024" />
      
      <glyph glyph-name="xiala" unicode="&#58964;" d="M787.2 515.2c-9.6 9.6-22.4 12.8-35.2 12.8l-480-3.2c-12.8 0-25.6-3.2-35.2-12.8-19.2-19.2-19.2-48 0-67.2l240-240c3.2-3.2 9.6-6.4 12.8-9.6l3.2-3.2c16-6.4 38.4-3.2 51.2 9.6l240 243.2c22.4 22.4 19.2 51.2 3.2 70.4z"  horiz-adv-x="1024" />
      
      <glyph glyph-name="liebiao-04" unicode="&#58907;" d="M584.249256 628.770145c-5.113312-15.339935 5.113312-30.679871 20.453247-30.679871l173.852601-40.906494h5.113312c5.113312 0 10.226624 0 15.339935 5.113311 5.113312 5.113312 10.226624 10.226624 15.339935 20.453248l40.906495 173.8526c0 15.339935-10.226624 30.679871-25.566559 30.679871s-25.566559-5.113312-30.679871-20.453247l-25.566559-107.379548-76.699677 138.059419C640.495686 889.549046 522.889514 925.342228 430.849902 869.095799c-25.566559-20.453247-51.133118-46.019806-66.473053-71.586365L277.450549 649.223392c-5.113312-10.226624 0-20.453247 5.113311-20.453247l20.453248-10.226624c10.226624-5.113312 20.453247 0 20.453247 5.113312L410.396655 766.829563c5.113312 5.113312 5.113312 10.226624 10.226624 15.339935C466.643085 843.52924 553.569385 853.755863 614.929127 807.736057c10.226624-10.226624 20.453247-15.339935 25.566559-25.566559 5.113312-5.113312 5.113312-10.226624 10.226623-15.339935l86.9263-148.286042-122.719482 30.679871c-15.339935 0-30.679871-5.113312-30.679871-20.453247z m439.744814-429.518191c0 30.679871-10.226624 56.24643-25.566559 81.812989L921.727834 414.01105c-5.113312 10.226624-15.339935 10.226624-20.453247 5.113311l-20.453247-10.226623c-10.226624-5.113312-10.226624-15.339935-10.226624-20.453247l76.699677-132.946107c5.113312-5.113312 5.113312-10.226624 5.113312-15.339935 30.679871-71.586365-5.113312-153.399354-76.699677-184.079225-10.226624-5.113312-25.566559-10.226624-35.793183-10.226623H681.40218l61.359741 56.246429c10.226624 10.226624 10.226624 30.679871 0 40.906495-10.226624 10.226624-30.679871 10.226624-40.906494 0l-107.379548-107.379548c-10.226624-10.226624-10.226624-30.679871 0-46.019806l107.379548-107.379547c10.226624-10.226624 30.679871-10.226624 40.906494 0 10.226624 10.226624 10.226624 30.679871 0 40.906494l-66.473053 66.473053h148.286042c30.679871 0 56.24643 5.113312 81.812989 20.453247 76.699677 30.679871 122.719483 112.492859 117.606171 189.192536z m-618.710727-153.399353H241.657366c-51.133118 0-102.266236 25.566559-127.832795 71.586365-15.339935 30.679871-20.453247 66.473053-15.339935 97.152924 5.113312 15.339935 10.226624 30.679871 15.339935 40.906494l76.699677 138.059418 30.679871-107.379547c5.113312-15.339935 15.339935-20.453247 30.679871-20.453247h10.226623c15.339935 5.113312 25.566559 20.453247 20.453247 35.793182l-46.019806 168.739289c-5.113312 10.226624-10.226624 15.339935-20.453247 20.453247-5.113312 5.113312-15.339935 10.226624-25.566559 5.113312l-168.739289-46.019806c-15.339935-5.113312-25.566559-25.566559-20.453247-40.906494 5.113312-15.339935 20.453247-25.566559 35.793183-20.453247l107.379547 30.67987L67.804765 281.064943a189.192536 189.192536 0 0 1 0-194.305848c35.793183-61.359741 97.152924-97.152924 168.739289-97.152924h168.739289c10.226624 0 15.339935 5.113312 15.339936 15.339935V25.399354c0 15.339935-10.226624 20.453247-15.339936 20.453247z"  horiz-adv-x="1025" />
      
      <glyph glyph-name="liebiao-05" unicode="&#58908;" d="M885.76 384c0-35.84 30.72-66.56 66.56-66.56S1024 348.16 1024 384c0 35.84-30.72 66.56-66.56 66.56s-71.68-30.72-71.68-66.56zM66.56 317.44C30.72 317.44 0 348.16 0 384c0 35.84 30.72 66.56 66.56 66.56 35.84 0 66.56-30.72 66.56-66.56 5.12-35.84-25.6-66.56-66.56-66.56zM445.44 384c0-35.84 30.72-66.56 66.56-66.56 35.84 0 66.56 30.72 66.56 66.56 0 35.84-30.72 66.56-66.56 66.56-35.84 0-66.56-30.72-66.56-66.56z"  horiz-adv-x="1024" />
      
      <glyph glyph-name="liebiao-03" unicode="&#58909;" d="M404.48 419.84H143.36c-46.08 0-81.92 35.84-81.92 81.92V762.88c0 46.08 35.84 81.92 81.92 81.92h261.12c46.08 0 81.92-35.84 81.92-81.92v-261.12c0-46.08-35.84-81.92-81.92-81.92zM143.36 783.36c-10.24 0-20.48-10.24-20.48-20.48v-261.12c0-10.24 10.24-20.48 20.48-20.48h261.12c10.24 0 20.48 10.24 20.48 20.48V762.88c0 10.24-10.24 20.48-20.48 20.48H143.36z m803.84-76.8h-363.52c-15.36 0-30.72 15.36-30.72 30.72s15.36 30.72 30.72 30.72h363.52c15.36 0 30.72-15.36 30.72-30.72s-15.36-30.72-30.72-30.72z m0-209.92h-363.52c-15.36 0-30.72 15.36-30.72 30.72s15.36 30.72 30.72 30.72h363.52c15.36 0 30.72-15.36 30.72-30.72s-15.36-30.72-30.72-30.72zM404.48-76.8H143.36c-46.08 0-81.92 35.84-81.92 81.92v261.12c0 46.08 35.84 81.92 81.92 81.92h261.12c46.08 0 81.92-35.84 81.92-81.92v-261.12c0-46.08-35.84-81.92-81.92-81.92z m-261.12 363.52c-10.24 0-20.48-10.24-20.48-20.48v-261.12c0-10.24 10.24-20.48 20.48-20.48h261.12c10.24 0 20.48 10.24 20.48 20.48v261.12c0 10.24-10.24 20.48-20.48 20.48H143.36z m803.84-76.8h-363.52c-15.36 0-30.72 15.36-30.72 30.72s15.36 30.72 30.72 30.72h363.52c15.36 0 30.72-15.36 30.72-30.72s-15.36-30.72-30.72-30.72z m0-209.92h-363.52c-15.36 0-30.72 15.36-30.72 30.72s15.36 30.72 30.72 30.72h363.52c15.36 0 30.72-15.36 30.72-30.72s-15.36-30.72-30.72-30.72z"  horiz-adv-x="1024" />
      
      <glyph glyph-name="liebiao-02" unicode="&#58910;" d="M952.32-15.36h-76.8v353.28c0 15.36-15.36 30.72-30.72 30.72s-25.6-10.24-25.6-25.6v-353.28h-112.64v220.16c0 15.36-15.36 30.72-30.72 30.72s-30.72-15.36-30.72-30.72v-220.16H481.28V389.12c0 15.36-15.36 30.72-30.72 30.72s-30.72-15.36-30.72-30.72v-399.36H291.84c10.24 0 10.24 10.24 10.24 20.48v291.84c0 15.36-15.36 30.72-30.72 30.72s-30.72-15.36-30.72-30.72v-291.84c0-10.24 5.12-15.36 10.24-20.48H122.88V773.12c0 15.36-15.36 30.72-30.72 30.72s-30.72-15.36-30.72-30.72v-824.32c0-15.36 15.36-30.72 30.72-30.72h860.16c15.36 0 30.72 15.36 30.72 30.72 0 20.48-10.24 35.84-30.72 35.84zM225.28 440.32c5.12 0 15.36 0 20.48 5.12l174.08 148.48 302.08-76.8c10.24-5.12 25.6 0 35.84 15.36l117.76 179.2c0 5.12 5.12 5.12 5.12 10.24v-76.8c0-15.36 15.36-30.72 30.72-30.72s30.72 15.36 30.72 30.72V773.12c0 15.36-15.36 30.72-30.72 30.72H768c-15.36 0-30.72-15.36-30.72-30.72s15.36-30.72 30.72-30.72h51.2l-102.4-153.6-296.96 76.8c-10.24 0-20.48 0-25.6-5.12L204.8 501.76c-15.36-10.24-15.36-30.72-5.12-40.96 5.12-15.36 15.36-20.48 25.6-20.48zM880.64 742.4v-5.12c-5.12 0-5.12 5.12 0 5.12z"  horiz-adv-x="1024" />
      
      <glyph glyph-name="liebiao-01" unicode="&#58911;" d="M209.92 783.36C230.4 819.2 271.36 844.8 317.44 844.8h389.12c46.08 0 87.04-25.6 107.52-61.44l194.56-337.92c20.48-35.84 20.48-87.04 0-122.88l-194.56-337.92c-20.48-35.84-61.44-61.44-107.52-61.44H317.44c-46.08 0-87.04 25.6-107.52 61.44L15.36 322.56c-20.48 35.84-20.48 87.04 0 122.88l194.56 337.92z m107.52 0c-20.48 0-40.96-10.24-51.2-30.72L71.68 414.72c-10.24-20.48-10.24-40.96 0-61.44l194.56-337.92c10.24-20.48 30.72-30.72 51.2-30.72h389.12c20.48 0 40.96 10.24 51.2 30.72l194.56 337.92c10.24 20.48 10.24 40.96 0 61.44l-194.56 337.92c-10.24 20.48-30.72 30.72-51.2 30.72H317.44zM675.84 384c0-92.16-71.68-163.84-163.84-163.84S348.16 291.84 348.16 384 419.84 547.84 512 547.84s163.84-71.68 163.84-163.84zM512 281.6c56.32 0 102.4 46.08 102.4 102.4s-46.08 102.4-102.4 102.4-102.4-46.08-102.4-102.4 46.08-102.4 102.4-102.4z"  horiz-adv-x="1024" />
      
      <glyph glyph-name="liebiao-06" unicode="&#58905;" d="M634.88 394.24c-5.12 0-5.12 5.12 0 5.12 66.56 40.96 107.52 117.76 102.4 204.8-5.12 112.64-102.4 204.8-215.04 209.92C394.24 819.2 286.72 716.8 286.72 588.8c0-81.92 46.08-153.6 107.52-194.56 5.12 0 5.12-5.12 0-5.12-122.88-51.2-209.92-174.08-209.92-312.32v-97.28c0-15.36 15.36-30.72 30.72-30.72h588.8c15.36 0 30.72 15.36 30.72 30.72v122.88c5.12 133.12-81.92 245.76-199.68 291.84zM337.92 588.8c0 97.28 76.8 174.08 174.08 174.08s174.08-76.8 174.08-174.08-76.8-174.08-174.08-174.08S337.92 496.64 337.92 588.8z m445.44-583.68H240.64V76.8c0 158.72 128 286.72 286.72 286.72 143.36 0 261.12-117.76 261.12-261.12v-97.28zM281.6 394.24c0 15.36-10.24 25.6-20.48 30.72-51.2 20.48-87.04 66.56-87.04 122.88 0 56.32 35.84 107.52 92.16 128 5.12 5.12 15.36 15.36 15.36 25.6 0 15.36-15.36 30.72-35.84 25.6-71.68-25.6-122.88-97.28-122.88-174.08 0-61.44 30.72-112.64 76.8-148.48 5.12 0 0-5.12 0-5.12-97.28-40.96-168.96-143.36-168.96-256V25.6c0-15.36 10.24-25.6 25.6-25.6s25.6 10.24 25.6 25.6v112.64c0 107.52 76.8 199.68 174.08 220.16 15.36 5.12 25.6 20.48 25.6 35.84z m547.84 0c-5.12 0-5.12 5.12 0 5.12 46.08 35.84 76.8 87.04 76.8 148.48 0 81.92-51.2 148.48-122.88 174.08-15.36 5.12-35.84-5.12-35.84-25.6 0-10.24 5.12-20.48 15.36-25.6 51.2-20.48 87.04-66.56 87.04-122.88 0-56.32-35.84-102.4-81.92-122.88-15.36-5.12-20.48-20.48-20.48-35.84 0-15.36 10.24-30.72 25.6-35.84 97.28-25.6 174.08-112.64 174.08-220.16V25.6c0-15.36 10.24-25.6 25.6-25.6s25.6 10.24 25.6 25.6v112.64c0 117.76-71.68 215.04-168.96 256z"  horiz-adv-x="1024" />
      
      <glyph glyph-name="liebiao-07" unicode="&#58906;" d="M875.52 389.12V727.04c0 66.56-51.2 117.76-117.76 117.76H87.04v-737.28c0-61.44 51.2-117.76 117.76-117.76h276.48l5.12 5.12L870.4 384l5.12 5.12z m-51.2 25.6L460.8 46.08H204.8c-35.84 0-61.44 25.6-61.44 61.44V788.48h619.52c35.84 0 61.44-25.6 61.44-61.44v-312.32zM1018.88 245.76l-15.36 15.36-87.04 87.04-15.36 15.36-5.12 5.12-5.12-5.12-15.36-15.36-66.56-66.56-15.36-15.36-5.12-5.12-225.28-225.28-5.12-5.12v-5.12l-20.48-112.64-5.12-30.72v-5.12h5.12l30.72 5.12 112.64 20.48h5.12l5.12 5.12 245.76 245.76 15.36 15.36 5.12 5.12 46.08 46.08 15.36 15.36v10.24z m-430.08-312.32l20.48 5.12-20.48-5.12z m76.8 25.6c-5.12-5.12-10.24-5.12-15.36-10.24l-56.32-10.24 10.24 56.32c0 5.12 5.12 10.24 10.24 15.36l215.04 215.04 51.2-51.2-215.04-215.04z m250.88 250.88l-51.2 51.2 30.72 25.6 51.2-51.2-30.72-25.6z m30.72 30.72zM522.24 701.44c-133.12 0-235.52-107.52-235.52-235.52 0-128 107.52-235.52 235.52-235.52 128 0 235.52 107.52 235.52 235.52 5.12 128-102.4 235.52-235.52 235.52z m0-414.72c-97.28 0-179.2 81.92-179.2 179.2s81.92 179.2 179.2 179.2 179.2-81.92 179.2-179.2-76.8-179.2-179.2-179.2zM609.28 527.36c-5.12 0-10.24 0-15.36-5.12l-51.2-35.84V604.16c0 15.36-15.36 30.72-30.72 30.72s-30.72-15.36-30.72-30.72v-184.32c0-15.36 15.36-25.6 30.72-25.6 10.24 0 15.36 5.12 20.48 10.24l92.16 61.44c15.36 10.24 15.36 25.6 5.12 40.96 0 15.36-10.24 20.48-20.48 20.48z m-66.56-51.2l20.48 15.36-20.48-15.36z"  horiz-adv-x="1024" />
      
      <glyph glyph-name="lingdang" unicode="&#59095;" d="M512.099527 864c17.36585 0 31.469606-13.911868 31.469606-30.941915v-57.182576l11.273411-1.487131c158.451385-21.395495 277.997511-156.148731 277.99751-313.496761 0-107.265304 28.351429-197.404617 52.145521-254.155446 25.233251-60.156838 50.274614-95.847977 52.481325-98.966155a35.49925 35.49925 0 0 0 3.214121-33.676316c-4.461392-10.218027-14.919279-16.310467-28.063596-16.310467h-215.154243l-2.254682-9.978167a183.588693 183.588693 0 0 0-65.002006-102.324192 190.640571 190.640571 0 0 0-236.213933 0 183.588693 183.588693 0 0 0-64.954034 102.324192l-2.302655 9.978167H111.58163a33.820232 33.820232 0 0 0-28.303457 16.982075c-2.68643 6.332299-6.85999 20.723887 2.734402 32.045269l0.335804 0.431748 0.335804 0.479719c1.055383 1.487131 26.720382 37.945821 52.529296 99.82965 23.794092 56.990689 52.145521 147.225947 52.145521 253.339923 0 157.34803 119.546125 292.149239 277.99751 313.496761l11.273412 1.487131V833.058085c0 17.078018 14.103757 30.941915 31.469605 30.941915z m122.424443-806.216767H389.675084l8.155233-18.037456a125.398704 125.398704 0 0 1 114.26921-73.253184c49.315176 0 94.168958 28.783177 114.26921 73.253184l8.155233 18.037456zM512.099527 714.519371A258.424951 258.424951 0 0 1 329.61419 640.450665a250.07783 250.07783 0 0 1-75.315978-179.559048c0-107.505163-25.760943-216.161653-76.659193-322.899265l-8.634952-18.277317H855.24296l-8.682925 18.229344c-50.850278 106.785584-76.659193 215.394102-76.659193 322.947238a250.07783 250.07783 0 0 1-75.315977 179.559048 258.424951 258.424951 0 0 1-182.485338 74.068706z m-0.47972-91.338612c43.846372 0 85.198202-16.934102 116.427949-47.684129 31.181774-30.702054 48.45168-71.478221 48.45168-114.605013a31.229746 31.229746 0 0 0-31.469606-30.941915 31.229746 31.229746 0 0 0-31.421635 30.941915c0 55.359642-45.76525 100.405313-101.940415 100.405313a31.229746 31.229746 0 0 0-31.421634 30.941914c0 17.078018 14.055785 30.941915 31.421634 30.941915z"  horiz-adv-x="1024" />
      
      <glyph glyph-name="tubiaoziti22-22" unicode="&#58904;" d="M831.5 303c-22.5 0-49.5 9-67.5 27L458 640.5c-36 36-36 94.5 0 130.5l36 36c36 36 94.5 36 130.5 0l310.5-310.5c36-36 36-94.5 0-130.5l-36-36c-18-18-40.5-27-67.5-27z m-270 468c-9 0-18-4.5-22.5-9l-36-36c-13.5-13.5-13.5-31.5 0-45l310.5-310.5c13.5-13.5 31.5-13.5 45 0l36 36c13.5 13.5 13.5 31.5 0 45l-310.5 310.5c-9 9-13.5 9-22.5 9zM125-66C89-66 62-39 62-3c0 9 0 13.5 4.5 22.5L138.5 555c9 22.5 27 45 49.5 54l283.5 76.5c13.5 4.5 27 4.5 36-4.5l297-297c9-9 13.5-22.5 4.5-36l-76.5-283.5c-9-22.5-31.5-40.5-54-49.5L143-61.5c-4.5-4.5-13.5-4.5-18-4.5zM480.5 618L215 550.5c-9-4.5-13.5-9-18-18L125-3 660.5 69c9 4.5 13.5 9 18 18l67.5 265.5-265.5 265.5zM107-52.5c-18 0-31.5 13.5-31.5 31.5 0 9 4.5 18 9 22.5l207 207c13.5 13.5 31.5 13.5 45 0 13.5-13.5 13.5-31.5 0-45l-207-207c-4.5-4.5-13.5-9-22.5-9z m328.5 261c-54 0-99 45-99 99 0 54 45 99 99 99s99-45 99-99c0-27-9-54-31.5-72-13.5-18-40.5-27-67.5-27z m0 139.5c-22.5 0-40.5-18-40.5-40.5s18-40.5 40.5-40.5 40.5 18 40.5 40.5c0 9-4.5 22.5-13.5 27-4.5 9-13.5 13.5-27 13.5z"  horiz-adv-x="1024" />
      
      <glyph glyph-name="icon_xiugaishijian" unicode="&#59033;" d="M569.162305 355.254492V636.479883c0 15.528516-12.592969 28.122363-28.121485 28.122363s-28.122363-12.593848-28.122363-28.122363V383.375977H259.824219c-15.528516 0-28.121484-12.592969-28.121485-28.121485s12.592969-28.121484 28.121485-28.121484h281.21748c15.528516-0.008789 28.121484 12.58418 28.121485 28.121484 0-0.008789 0-0.008789 0 0z m267.648047-14.869336c-22.391895 0-43.439062-8.717871-59.275196-24.554004L601.107031 139.394238a28.147852 28.147852 0 0 1-7.505859-13.499121l-23.973047-102.749414a28.114453 28.114453 0 0 1 7.50498-26.275781 28.123242 28.123242 0 0 1 26.275782-7.49707L706.15918 13.347656a28.116211 28.116211 0 0 1 13.498242 7.50586l176.428125 176.428125c15.836133 15.836133 24.554004 36.883301 24.554004 59.275195 0 22.391895-8.717871 43.439062-24.554004 59.275195-15.827344 15.836133-36.883301 24.554004-59.275195 24.554004zM856.320313 237.055664L685.559375 66.294727l-50.88252-11.872266 11.873145 50.882519 170.760059 170.760059c10.756055 10.756934 28.25332 10.756934 39.010253 0s10.756055-28.262109 0-39.009375z m105.50039 175.62832c-7.435547 113.849121-57.430371 219.717773-140.79375 298.107422C737.294434 789.541406 627.839844 832.910156 512.839355 832.910156c-60.73418 0-119.657813-11.898633-175.144921-35.371582-53.580762-22.664355-101.695605-55.10127-143.016504-96.413379-41.312988-41.312988-73.749023-89.426953-96.413379-143.016504C74.791602 502.620703 62.89209 443.69707 62.89209 382.962891c0-114.771973 43.211426-224.050781 121.679297-307.730567 78.099609-83.284277 183.643945-133.410937 297.202148-141.162011 0.650391-0.043945 1.300781-0.070313 1.942383-0.070313 14.658398 0 27.014941 11.3625 28.025684 26.206348 1.054688 15.49248-10.643555 28.9125-26.144825 29.967187C280.105859 4.207031 119.135937 176.743359 119.135937 382.962891c0 217.090723 176.612695 393.704297 393.703418 393.704297 206.835645 0 379.397461-161.489355 392.860547-367.647364 1.010742-15.493359 14.368359-27.243457 29.896875-26.232715 15.493359 1.019531 27.233789 14.403516 26.223926 29.896875z"  horiz-adv-x="1024" />
      
      <glyph glyph-name="bianjirili" unicode="&#59055;" d="M326 643c-17 0-31 14-31 31V798c0 17 14 31 31 31s31-14 31-31v-124c0-17-14.2-31-31-31zM656.6 643c-17 0-31 14-31 31V798c0 17 14 31 31 31s31-14 31-31v-124c0-17-14-31-31-31zM346.6 281.2c-5.4 0-10.8 1.2-15.8 3.4-5.4 2-9.6 5-13.6 8.6-7.4 7.8-12 18.6-12 29.4 0 10.8 4.6 21.4 12 29.4 4.2 3.8 8.6 6.6 13.6 8.6 10 4.2 21.4 4.2 31.4 0 5-2 9.6-5 13.6-8.6 1.6-2 3.8-4.2 5-6.2 1.6-2.4 2.8-5 3.8-7.4 1.2-2.4 2-5 2.4-7.4 0.4-2.8 0.8-5.8 0.8-8.2 0-10.8-4.6-21.4-12-29.4-4.2-3.8-8.6-6.6-13.6-8.6-4.8-2.2-10.2-3.6-15.6-3.6zM491.2 281.2c-5.4 0-10.8 1.2-15.8 3.4-5.4 2-9.6 5-13.6 8.6-7.4 7.8-12 18.6-12 29.4 0 2.4 0.4 5.4 0.8 8.2 0.4 2.4 1.2 5 2.4 7.4 0.8 2.4 2 5 3.8 7.4 1.6 2 3.4 4.2 5 6.2 15.2 15.2 43 15.2 58.8 0 1.6-2 3.4-4.2 5-6.2 1.6-2.4 2.8-5 3.8-7.4 1.2-2.4 2-5 2.4-7.4 0.4-2.8 0.8-5.8 0.8-8.2 0-10.8-4.6-21.4-12-29.4-7.8-7.4-18.2-12-29.4-12zM346.6 136.6c-5.4 0-10.8 1.2-15.8 3.4-5 2-9.6 5-13.6 8.6-7.4 7.8-12 18.6-12 29.4 0 2.4 0.4 5.4 0.8 7.8 0.4 2.8 1.2 5.4 2.4 7.8 0.8 2.4 2 5 3.8 7.4 1.2 2 3.4 4.2 5 6.2 4.2 3.8 8.6 6.6 13.6 8.6 10 4.2 21.4 4.2 31.4 0 5-2 9.6-5 13.6-8.6 1.6-2 3.8-4.2 5-6.2 1.6-2.4 2.8-5 3.8-7.4 1.2-2.4 2-5 2.4-7.8 0.4-2.4 0.8-5.4 0.8-7.8 0-10.8-4.6-21.4-12-29.4-4.2-3.8-8.6-6.6-13.6-8.6-4.8-2.2-10.2-3.4-15.6-3.4zM842.6 474H139.8c-17 0-31 14-31 31s14 31 31 31h702.8c17 0 31-14 31-31s-14-31-31-31zM649.2-61c-15.8 0-30.6 5.8-41.4 16.6-12.8 12.8-18.6 31.4-15.8 50.8l7.8 55.8c2 14.4 10.8 31.8 21 42.2l146.4 146.4c19.8 19.8 39.2 30.2 60.4 32.2 26 2.4 51.2-8.2 75.2-32.2 25.2-25.2 59.2-76.4 0-135.6l-146.4-146.4c-10.4-10.4-27.6-19-42.2-21l-55.8-7.8c-3-0.6-6-1-9.2-1z m185.6 282.4h-1.2c-5.8-0.4-13.6-5.8-22.4-14.4l-146.4-146.4c-1.2-1.2-3.4-5.4-3.4-7L654 2l51.6 7.4c1.6 0.4 5.8 2.4 7 3.8l146.4 146.4c18.2 18.2 20.6 27.2 0 48-6.4 5.8-16 13.8-24.2 13.8zM860 85c-2.8 0-5.8 0.4-8.2 1.2-54.6 15.2-98 58.8-113.2 113.2-4.6 16.6 5 33.4 21.4 38.4 16.6 4.6 33.4-5 38.4-21.4 9.6-33.8 36.4-60.8 70.2-70.2 16.6-4.6 26-22 21.4-38.4-4-13.8-16.4-22.8-30-22.8zM491.2-59.8H326c-150.8 0-237.6 86.8-237.6 237.6V529.4c0 150.8 86.8 237.6 237.6 237.6h330.8c150.8 0 237.6-86.8 237.6-237.6v-144.6c0-17-14-31-31-31s-31 14-31 31v144.6c0 118.2-57.4 175.6-175.6 175.6H326c-118.2 0-175.6-57.4-175.6-175.6V178c0-118.2 57.4-175.6 175.6-175.6h165.4c17 0 31-14 31-31s-14.2-31.2-31.2-31.2z"  horiz-adv-x="1024" />
      
      <glyph glyph-name="rentouxiang" unicode="&#58903;" d="M917.9-24.6c0-20.7-16.5-37.2-37.2-37.2H138.3c-20.7 0-37.2 16.5-37.2 37.2 0 0 6.2 128.2 107.5 177.8 64.1 31 39.3 16.5 117.9 47.6s97.2 53.8 97.2 53.8l-4.1 41.4s-86.9 24.8-101.3 119.9c-26.9-6.2-35.2 29-37.2 51.7-2.1 22.7-16.5 93.1 16.5 86.9-6.2 47.6-12.4 88.9-8.3 111.7 4.1 37.2-6.2 43.4 29 72.4 8.3 8.3-8.3 43.4-2.1 53.8 10.3 20.7 80.6 12.4 91 16.5 29 12.4 62 20.7 97.2 22.7 148.9-6.2 206.8-86.9 215.1-165.4 2.1-22.7-2.1-64.1-10.3-111.7 33.1 6.2 18.6-64.1 16.5-86.9-2.1-22.7-10.3-60-37.2-51.7C674 320.8 603.7 296 603.7 296l-4.1-39.3s18.6-20.7 97.2-53.8c78.6-31 53.8-18.6 117.9-49.6 97-47.7 103.2-177.9 103.2-177.9z"  horiz-adv-x="1024" />
      
      <glyph glyph-name="mima54" unicode="&#58995;" d="M503.151552 108.009926c-61.00772 0-110.489171 49.94716-110.489171 111.30416 0 61.357 49.597879 111.30416 110.489171 111.30416 61.00772 0 110.489171-49.94716 110.489171-111.30416C613.757151 157.957085 564.159272 108.009926 503.151552 108.009926zM503.151552 267.631268c-26.31249 0-47.61862-21.655412-47.61862-48.43361s21.422558-48.433609 47.61862-48.433609c26.31249 0 47.61862 21.655412 47.618621 48.433609S529.464042 267.631268 503.151552 267.631268zM821.812102 483.836105l-32.715971 0L789.096131 545.891668c0 78.355334-29.456018 152.402872-83.128839 208.287806-53.905675 56.234215-125.508247 87.32021-201.418616 87.320209-76.026796 0-147.51294-30.969567-201.418615-87.320209-53.556395-55.884934-83.128839-129.932471-83.128839-208.287806l0-62.055561-35.277364 0c-34.928084 0-63.219831-28.291748-63.219832-63.219832l0-409.35714c0-34.928084 28.291748-63.219831 63.219832-63.219832l637.204673 0c34.928084 0 63.219831 28.291748 63.219832 63.219832L885.14836 420.499847C885.031934 455.427931 856.740186 483.836105 821.812102 483.836105zM282.755344 545.891668c0 62.171989 23.285389 120.618315 65.664798 164.744128 41.9137 43.776531 97.449354 67.87691 156.128533 67.87691 58.679181 0 114.098407-24.100378 156.128534-67.87691 42.262981-44.125812 65.664798-102.688565 65.664797-164.744128l0-62.055561L282.755344 483.836105 282.755344 545.891668zM822.161383 11.142707c0-0.116427 0-0.116427 0-0.116426 0-0.116427-0.232854-0.232854-0.232854-0.232855 0 0-0.116427 0-0.116427 0L184.607429 10.793426c-0.116427 0-0.116427 0-0.116427 0 0 0 0 0 0 0-0.116427 0-0.232854 0.232854-0.232854 0.232855 0 0 0 0.116427 0 0.116426L184.258148 420.499847c0 0.116427 0 0.116427 0 0.116427 0 0.116427 0.232854 0.232854 0.232854 0.232854 0 0 0.116427 0 0.116427 0l637.204673 0c0.116427 0 0.116427 0 0.116427 0 0 0 0 0 0 0 0.116427 0 0.232854-0.232854 0.232854-0.232854 0 0 0-0.116427 0-0.116427L822.161383 11.142707z"  horiz-adv-x="1024" />
      
      <glyph glyph-name="zhanghaodenglu" unicode="&#59149;" d="M648.533333 351.232c81.92 47.786667 136.533333 136.533333 136.533334 232.106667 0 150.186667-122.88 273.066667-273.066667 273.066666s-273.066667-116.053333-273.066667-266.24c0-102.4 54.613333-184.32 136.533334-232.106666-177.493333-54.613333-300.373333-218.453333-307.2-409.6 0-27.306667 13.653333-40.96 34.133333-40.96s34.133333 13.653333 34.133333 34.133333c6.826667 204.8 170.666667 368.64 375.466667 368.64s368.64-163.84 375.466667-368.64c0-20.48 13.653333-34.133333 34.133333-34.133333s34.133333 13.653333 34.133333 34.133333c-6.826667 191.146667-129.706667 354.986667-307.2 409.6z m-341.333333 238.933333c0 116.053333 88.746667 204.8 204.8 204.8s204.8-88.746667 204.8-204.8-88.746667-204.8-204.8-204.8-204.8 88.746667-204.8 204.8z"  horiz-adv-x="1024" />
      
      <glyph glyph-name="fanhui" unicode="&#58902;" d="M511.309042-128c-281.910931 0-511.309042 229.398111-511.309042 511.309042s229.398111 511.309042 511.309042 511.309042 511.309042-229.398111 511.309042-511.309042-229.398111-511.309042-511.309042-511.309042z m0 967.34143c-251.508772 0-456.032389-204.523617-456.032389-456.032388s204.523617-456.032389 456.032389-456.032389 456.032389 204.523617 456.032388 456.032389-204.523617 456.032389-456.032388 456.032388zM614.952767 65.468286c-6.909582 0-13.819163 2.763833-19.346829 8.291498l-290.202429 290.202429c-5.527665 5.527665-8.291498 12.437247-8.291498 19.346829s2.763833 13.819163 8.291498 19.346828l290.202429 290.20243c11.055331 11.055331 27.638327 11.055331 38.693657 0 11.055331-11.055331 11.055331-27.638327 0-38.693658l-270.8556-270.8556 270.8556-270.855601c11.055331-11.055331 11.055331-27.638327 0-38.693657-5.527665-5.527665-12.437247-8.291498-19.346828-8.291498z"  horiz-adv-x="1024" />
      
      <glyph glyph-name="yangli" unicode="&#58901;" d="M984.764719 180.810567c-3.935396 12.634694-14.395266 21.851806-26.926396 23.715942l-115.887066 17.60572-51.781531 109.569719c-5.592405 12.013315-17.191468 19.469856-29.929724 19.469856-12.738257 0-24.337319-7.560104-29.929725-19.366293l-51.781531-109.569719-115.887066-17.502157c-12.53113-1.864135-22.991-11.081248-26.926396-23.715941-3.935396-12.634694-0.621378-26.408581 8.388608-35.625694l83.782517-85.232399-19.780545-120.443841c-2.071261-13.048946 3.003329-26.305018 13.256072-34.072248a32.13044 32.13044 0 0 1 19.573418-6.628036c5.281716 0 10.666995 1.34632 15.53446 4.03896l103.563061 56.752558 103.666625-56.856121c4.867464-2.69264 10.252743-4.038959 15.53446-4.03896 6.938725 0 13.87745 2.174824 19.573418 6.628036 10.252743 7.76723 15.430896 21.023302 13.256072 34.072248l-19.780545 120.44384 83.782517 85.2324c9.320676 9.113549 12.634694 22.887437 8.699297 35.52213z m-81.918381-26.719269l-60.998644-62.034274-7.352977-7.456541 1.657009-10.356306 14.395265-87.61435c0.310689-1.967698-0.414252-3.935396-1.760572-5.07459-0.517815-0.414252-1.139194-0.621378-1.760572-0.621379-0.414252 0-0.932068 0.103563-1.449883 0.414253l-75.393909 41.321661-9.942053 5.385279-9.942054-5.385279-75.393909-41.218098c-0.414252-0.207126-0.828504-0.310689-1.34632-0.31069-0.310689 0-1.139194 0.103563-1.760572 0.621379-1.34632 1.035631-2.071261 3.106892-1.760572 5.07459l14.395265 87.61435 1.657009 10.356306-7.352977 7.456541-60.998643 62.034274c-1.242757 1.34632-1.760572 3.521144-1.139194 5.385279 0.517815 1.657009 1.760572 2.796203 3.003329 3.003329l84.403895 12.841819 10.874122 1.657009 4.660337 9.942054 37.696955 79.743558c0.621378 1.449883 1.864135 2.38195 3.106892 2.38195s2.485513-0.828504 3.106891-2.38195l37.696955-79.743558 4.660338-9.942054 10.874121-1.657009 84.403896-12.841819c1.34632-0.207126 2.589077-1.34632 3.003328-3.003329 0.517815-2.071261 0-4.246086-1.242756-5.592406zM857.971168 618.021451h-0.063432c-1.436937 64.812353-27.354888 125.527493-73.345949 171.519848-47.219578 47.220873-109.968437 73.278633-176.726482 73.409382l-10.388669 0.532055H169.669053c-50.244914 0-91.121254-40.877635-91.121254-91.121255v-771.666496c0-50.244914 40.877635-91.121254 91.121254-91.121254h326.991306v0.11133c0.849217-0.067316 1.704907-0.11133 2.572247-0.11133 17.876279 0 32.363457 14.491061 32.363457 32.360867 0 17.871101-14.487178 32.366046-32.363457 32.366046-0.866046 0-1.72303-0.044014-2.572247-0.11133v0.110036H187.753753c-27.440328 0-49.762051 22.323018-49.762052 49.760756V748.993771c0 27.439033 22.323018 49.762051 49.762052 49.762051H582.486952V641.949696c0-29.644926 24.118543-53.762174 53.762174-53.762174h162.279434v-201.661878c0-16.382382 13.280668-29.666934 29.668228-29.666933 16.38756 0 29.669523 13.284552 29.669523 29.666933v0.002589h0.106152V618.021451z m-200.88127 28.841018c-8.8171 0-15.987548 7.046172-15.987548 15.707927l-0.001295 136.184132c82.616138-7.872087 148.896497-71.431327 159.335654-151.892059H657.089898z"  horiz-adv-x="1024" />
      
      <glyph glyph-name="tubiaoziti2-02" unicode="&#58898;" d="M560.75816 426.877524h422.521417c25.453097-5.090619 40.724956-25.453097 40.724956-50.906195 0-20.362478-20.362478-35.634336-40.724956-40.724955H560.75816v-422.521418c-5.090619-25.453097-25.453097-40.724956-50.906195-40.724956-20.362478 0-35.634336 20.362478-40.724956 40.724956V335.246374H51.696211c-25.453097-5.090619-45.815575 15.271858-50.906195 40.724955-5.090619 25.453097 15.271858 45.815575 40.724956 50.906195h432.702657V844.308323c-5.090619 25.453097 10.181239 45.815575 35.634336 50.906194 25.453097 5.090619 45.815575-15.271858 50.906195-40.724956V426.877524z"  horiz-adv-x="1029" />
      
      <glyph glyph-name="tubiaoziti2-01" unicode="&#58899;" d="M501.76 322.56l-337.92-337.92c-20.48-15.36-46.08-10.24-61.44 10.24-10.24 15.36-10.24 40.96 0 56.32L440.32 384 107.52 721.92c-15.36 15.36-15.36 46.08 5.12 61.44 15.36 10.24 40.96 10.24 56.32 0l337.92-337.92 337.92 337.92c15.36 20.48 40.96 20.48 61.44 10.24s20.48-40.96 10.24-61.44c0-5.12-5.12-5.12-10.24-10.24L568.32 384l337.92-337.92c20.48-15.36 20.48-40.96 10.24-61.44s-40.96-20.48-61.44-10.24c-5.12 0-5.12 5.12-10.24 10.24l-343.04 337.92z"  horiz-adv-x="1024" />
      
      <glyph glyph-name="tubiaoziti-17" unicode="&#58896;" d="M512 174.08c5.12 0 20.48 5.12 25.6 10.24l476.16 476.16c10.24 10.24 10.24 30.72 0 46.08-10.24 10.24-30.72 10.24-46.08 0l-460.8-455.68L51.2 706.56c-10.24 10.24-30.72 10.24-46.08 0-10.24-10.24-10.24-30.72 0-46.08l476.16-476.16c10.24-10.24 25.6-15.36 30.72-10.24z"  horiz-adv-x="1024" />
      
      <glyph glyph-name="tubiaoziti-16" unicode="&#58897;" d="M486.4 706.56L10.24 230.4c-10.24-10.24-10.24-30.72 0-46.08s30.72-10.24 46.08 0L512 640l460.8-455.68c10.24-10.24 30.72-10.24 46.08 0 10.24 10.24 10.24 30.72 0 46.08l-476.16 476.16c-5.12 5.12-20.48 10.24-25.6 10.24-10.24 0-20.48 0-30.72-10.24z"  horiz-adv-x="1026" />
      
      <glyph glyph-name="shijuan-13" unicode="&#58895;" d="M916.48 896H220.16C143.36 896 71.68 829.44 71.68 747.52v-655.36H35.84c-20.48 0-35.84-15.36-35.84-35.84v-71.68C0-76.8 51.2-128 112.64-128h660.48c56.32 0 102.4 51.2 102.4 107.52V675.84h107.52c25.6 0 40.96 15.36 40.96 35.84V783.36C1024 844.8 977.92 896 916.48 896zM112.64-56.32c-20.48 0-35.84 15.36-35.84 35.84v35.84H665.6v-30.72c0-15.36 5.12-25.6 5.12-40.96H112.64z m691.2 107.52v-71.68c0-20.48-15.36-35.84-30.72-35.84H768c-20.48 0-30.72 20.48-30.72 40.96v71.68c0 20.48-15.36 35.84-35.84 35.84H148.48V747.52c0 40.96 35.84 76.8 76.8 76.8h588.8c-5.12-10.24-5.12-25.6-5.12-35.84v-71.68l-5.12-665.6z m148.48 696.32h-71.68v40.96c0 20.48 15.36 35.84 30.72 35.84h5.12c20.48 0 30.72-20.48 30.72-40.96v-35.84zM614.4 496.64h-92.16l15.36 189.44c0 5.12 0 15.36-10.24 15.36-10.24 5.12-20.48 5.12-25.6-5.12L296.96 435.2s-5.12-5.12-5.12-10.24c0-10.24 10.24-20.48 20.48-20.48H409.6l-15.36-189.44c0-10.24 10.24-20.48 20.48-20.48 5.12 0 10.24 5.12 15.36 10.24l199.68 261.12c5.12 5.12 5.12 10.24 5.12 10.24 0 10.24-10.24 20.48-20.48 20.48zM440.32 281.6l10.24 143.36c0 10.24-10.24 20.48-20.48 20.48H353.28l133.12 174.08-10.24-138.24c0-10.24 10.24-20.48 20.48-20.48h76.8L440.32 281.6z"  horiz-adv-x="1024" />
      
      <glyph glyph-name="fabu-12" unicode="&#58890;" d="M860.16 844.8H163.84C102.4 844.8 51.2 793.6 51.2 732.16v-701.44C51.2-25.6 102.4-76.8 163.84-76.8h701.44c61.44 0 112.64 51.2 112.64 112.64V732.16C972.8 793.6 921.6 844.8 860.16 844.8z m46.08-808.96c0-25.6-20.48-46.08-46.08-46.08H163.84c-25.6 0-46.08 20.48-46.08 46.08V732.16c0 25.6 20.48 46.08 46.08 46.08h701.44c25.6 0 46.08-20.48 46.08-46.08v-696.32zM783.36 660.48l-143.36-143.36-81.92 81.92c-10.24 15.36-30.72 15.36-46.08 0-10.24-10.24-10.24-35.84 0-46.08l102.4-102.4c15.36-15.36 35.84-15.36 51.2 0 0 0 5.12 0 5.12 5.12l158.72 158.72c15.36 15.36 15.36 35.84 0 46.08-10.24 10.24-30.72 10.24-46.08 0zM793.6 348.16c-10.24 15.36-30.72 15.36-46.08 0l-76.8-76.8-76.8 76.8c-10.24 15.36-30.72 15.36-46.08 0-15.36-10.24-15.36-30.72 0-46.08l76.8-76.8-76.8-76.8c-15.36-10.24-15.36-30.72 0-46.08 10.24-15.36 30.72-15.36 46.08 0l76.8 76.8 15.36-15.36 61.44-61.44c15.36-10.24 35.84-10.24 46.08 0 15.36 10.24 15.36 30.72 0 46.08L716.8 225.28l76.8 76.8c15.36 15.36 15.36 35.84 0 46.08zM343.04 701.44c-5.12 10.24-10.24 10.24-15.36 15.36-15.36 5.12-25.6 0-30.72-15.36l-102.4-250.88v-5.12c-5.12-10.24 0-25.6 10.24-30.72h5.12c10.24 0 25.6 5.12 30.72 15.36l25.6 61.44h107.52l25.6-61.44v-5.12c5.12-10.24 20.48-15.36 30.72-10.24 10.24 5.12 15.36 20.48 10.24 35.84L343.04 701.44zM281.6 542.72l35.84 81.92 30.72-81.92H281.6zM373.76 209.92c35.84 10.24 46.08 35.84 46.08 66.56 0 15.36-5.12 30.72-10.24 40.96-10.24 10.24-15.36 20.48-30.72 25.6-10.24 5.12-30.72 10.24-51.2 10.24H230.4c-15.36 0-25.6-10.24-25.6-25.6V76.8c0-15.36 10.24-25.6 25.6-25.6h92.16c35.84 0 61.44 10.24 76.8 25.6 15.36 15.36 25.6 35.84 25.6 56.32 0 15.36-5.12 30.72-15.36 46.08-5.12 15.36-20.48 25.6-35.84 30.72zM256 302.08h76.8c5.12 0 10.24-5.12 15.36-10.24 5.12-5.12 5.12-10.24 5.12-20.48 0-5.12 0-15.36-5.12-20.48s-20.48-15.36-40.96-15.36H256v66.56z m92.16-184.32c-5.12-5.12-20.48-10.24-35.84-10.24H256V179.2h56.32c15.36 0 25.6-5.12 35.84-10.24 10.24-5.12 10.24-15.36 10.24-25.6s0-20.48-10.24-25.6z"  horiz-adv-x="1024" />
      
      <glyph glyph-name="fabu-11" unicode="&#58891;" d="M980.696517 187.860697L883.900498 284.656716c-5.094527 5.094527-10.189055 5.094527-15.283583 5.094528-5.094527 0-10.189055 0-15.283582-5.094528l-280.199005-280.199005c-5.094527-5.094527-5.094527-10.189055-5.094527-15.283582v-96.79602c0-10.189055 10.189055-20.378109 20.378109-20.378109h96.79602c5.094527 0 10.189055 0 15.283582 5.094527l280.199005 280.199005c10.189055 10.189055 10.189055 25.472637 0 30.567165zM664.835821-56.676617l-30.567164 5.094527v5.094528l5.094527 25.472637 229.253731 229.253731 30.567165-35.661692-234.348259-229.253731zM725.970149 274.467662c10.189055 0 25.472637 5.094527 30.567164 15.283582 5.094527 10.189055 5.094527 15.283582 0 25.472637 0 10.189055-10.189055 15.283582-15.283582 20.378109-20.378109 10.189055-45.850746 20.378109-76.41791 30.567164l-15.283582 10.189055 15.283582 10.189055c91.701493 45.850746 152.835821 137.552239 152.835821 239.442786C817.671642 773.731343 695.402985 896 547.661692 896c-152.835821 0-275.104478-122.268657-275.104478-270.00995 0-96.79602 50.945274-178.308458 132.457711-229.253732l15.283582-15.283582-15.283582-5.094527C191.044776 325.412935 38.208955 131.820896 38.208955-92.338308c0-15.283582 15.283582-30.567164 30.567164-30.567165 10.189055 0 15.283582 5.094527 20.37811 10.189055 10.189055 5.094527 15.283582 15.283582 15.283582 25.472637 0 66.228856 15.283582 132.457711 45.850746 193.59204 71.323383 137.552239 213.970149 219.064677 366.80597 219.064676 66.228856 0 132.457711-15.283582 193.59204-45.850746 5.094527-5.094527 10.189055-5.094527 15.283582-5.094527zM338.78607 625.99005c0 112.079602 91.701493 203.781095 203.781094 203.781094s203.781095-91.701493 203.781095-203.781094-91.701493-203.781095-203.781095-203.781095-203.781095 91.701493-203.781094 203.781095z"  horiz-adv-x="1024" />
      
      <glyph glyph-name="fabu-10" unicode="&#58892;" d="M880.64-76.8h-614.4c-66.56 0-122.88 56.32-122.88 122.88v122.88H204.8v-122.88c0-35.84 25.6-61.44 61.44-61.44h614.4c35.84 0 61.44 25.6 61.44 61.44V721.92c0 35.84-25.6 61.44-61.44 61.44h-614.4c-35.84 0-61.44-25.6-61.44-61.44v-122.88H143.36V721.92C143.36 788.48 199.68 844.8 266.24 844.8h614.4c66.56 0 122.88-56.32 122.88-122.88v-675.84c0-66.56-56.32-122.88-122.88-122.88zM614.4 573.44c-10.24 10.24-10.24 30.72 0 40.96 10.24 10.24 30.72 10.24 40.96 0l215.04-204.8c5.12-5.12 10.24-15.36 10.24-25.6s0-15.36-10.24-25.6l-209.92-209.92c-10.24-10.24-30.72-10.24-40.96 0-10.24 10.24-10.24 30.72 0 40.96l158.72 158.72L51.2 353.28c-15.36 0-30.72 15.36-30.72 30.72s15.36 30.72 30.72 30.72h727.04L614.4 573.44z"  horiz-adv-x="1024" />
      
      <glyph glyph-name="bianji" unicode="&#58880;" d="M867.2 665.6l-89.6 89.6c-38.4 38.4-96 38.4-134.4 0l-44.8-44.8L560 672 105.6 217.6c-6.4-6.4-9.6-12.8-9.6-22.4v-179.2c0-16 12.8-32 32-32h179.2c9.6 0 16 3.2 22.4 9.6L784 448l38.4 38.4 44.8 44.8c38.4 38.4 38.4 99.2 0 134.4z m-672-448L598.4 620.8l134.4-134.4-403.2-403.2-134.4 134.4zM160 48v115.2l115.2-115.2H160zM822.4 576l-44.8-44.8-134.4 134.4 44.8 44.8c12.8 12.8 32 12.8 44.8 0l89.6-89.6c12.8-12.8 12.8-32 0-44.8z"  horiz-adv-x="1024" />
      
      <glyph glyph-name="bianjibanli-93" unicode="&#58889;" d="M684.8 697.6l134.4-134.4v-6.4L358.4 96 192 70.4l25.6 166.4 467.2 460.8c0-6.4 0 0 0 0m0 64c-19.2 0-32-6.4-51.2-19.2l-467.2-480L128 51.2c-6.4-25.6 19.2-51.2 44.8-51.2h6.4l211.2 38.4L864 512c25.6 25.6 25.6 70.4 0 89.6L729.6 736c-6.4 19.2-25.6 25.6-44.8 25.6zM864 0H608c-19.2 0-32 12.8-32 32s12.8 32 32 32h256c19.2 0 32-12.8 32-32s-12.8-32-32-32zM640 512c-6.4 6.4-12.8 12.8-25.6 12.8-19.2 0-32-12.8-32-32 0-12.8 6.4-19.2 12.8-25.6l70.4-70.4 38.4 44.8-64 70.4z"  horiz-adv-x="1024" />
      
      <glyph glyph-name="tubiaoziti-10" unicode="&#58888;" d="M942.08 614.4H348.16c-40.96 0-81.92-35.84-81.92-81.92v-532.48c0-46.08 35.84-81.92 81.92-81.92h189.44c20.48 0 35.84 15.36 35.84 35.84 0 20.48-15.36 35.84-35.84 35.84H348.16c-5.12 0-15.36 5.12-15.36 15.36V532.48c0 5.12 5.12 15.36 15.36 15.36h593.92c5.12 0 15.36-5.12 15.36-15.36v-256c0-20.48 15.36-35.84 35.84-35.84s30.72 20.48 30.72 40.96V537.6c0 40.96-35.84 76.8-81.92 76.8zM778.24 716.8c0 20.48-15.36 35.84-35.84 35.84H215.04c-46.08 0-81.92-35.84-81.92-81.92v-532.48c0-20.48 15.36-35.84 35.84-35.84s35.84 15.36 35.84 35.84V670.72c0 5.12 5.12 15.36 15.36 15.36h532.48c10.24-5.12 25.6 10.24 25.6 30.72zM645.12 849.92c0 20.48-15.36 35.84-35.84 35.84H81.92C35.84 885.76 0 844.8 0 803.84v-532.48c0-20.48 15.36-35.84 35.84-35.84s35.84 15.36 35.84 35.84V803.84c0 5.12 5.12 15.36 15.36 15.36H614.4c15.36-5.12 30.72 10.24 30.72 30.72zM967.68 220.16l-435.2 143.36h-5.12-10.24c-15.36-5.12-20.48-15.36-15.36-30.72l143.36-430.08c0-5.12 5.12-10.24 10.24-15.36 5.12 0 5.12-5.12 10.24-5.12 10.24 0 15.36 5.12 20.48 15.36l66.56 128 15.36 25.6 112.64-112.64c10.24-10.24 30.72-10.24 40.96 0l5.12 5.12c10.24 10.24 10.24 30.72 0 40.96L819.2 97.28l25.6 15.36L972.8 179.2c5.12 5.12 10.24 5.12 10.24 15.36 0 10.24-5.12 20.48-15.36 25.6z m-158.72-51.2l-71.68-40.96-40.96-76.8-20.48-35.84-87.04 256 256-87.04-35.84-15.36z"  horiz-adv-x="1024" />
      
      <glyph glyph-name="dingwei" unicode="&#59123;" d="M946.654404 358.265904a435.248111 435.248111 0 0 0-408.920308-408.756527v-51.91859a25.590787 25.590787 0 0 0-51.22252 0V-50.490623a435.248111 435.248111 0 0 0-408.920309 408.756527H25.590787a25.590787 25.590787 0 1 0 0 51.181575h51.959535a435.248111 435.248111 0 0 0 408.920309 408.756528V870.163541a25.590787 25.590787 0 0 0 51.222519 0v-51.918589a435.248111 435.248111 0 0 0 408.920309-408.756528h51.386301a25.590787 25.590787 0 1 0 0-51.181574h-51.427246z m-51.30441 0h-153.380943a25.590787 25.590787 0 1 0 0 51.181575h153.339998a384.066536 384.066536 0 0 1-357.615899 357.493062v-152.725818a25.590787 25.590787 0 0 0-51.222519 0v152.725818a384.066536 384.066536 0 0 1-357.615899-357.493062h152.766764a25.590787 25.590787 0 1 0 0-51.181575H128.854732a384.066536 384.066536 0 0 1 357.615899-357.493062v152.725818a25.590787 25.590787 0 0 0 51.222519 0v-152.725818a384.066536 384.066536 0 0 1 357.615899 357.493062z m-383.247631-25.590787a51.181575 51.181575 0 1 0 51.22252 51.181575 51.181575 51.181575 0 0 0-51.22252-51.181575z"  horiz-adv-x="1024" />
      
      <glyph glyph-name="tianjiayonghu" unicode="&#59036;" d="M795.264 267.84a32 32 0 0 0 32-32l-0.064-100.672H928a32 32 0 0 0 32-32v-2.432a32 32 0 0 0-32-32l-100.8 0.064V-32a32 32 0 0 0-32-32h-2.304a32 32 0 0 0-32 32l-0.064 100.8h-100.672a32 32 0 0 0-32 32v2.304a32 32 0 0 0 32 32l100.672 0.064v100.672a32 32 0 0 0 32 32h2.432zM495.36 832a232.32 232.32 0 0 0 136.32-420.352 424.064 424.064 0 0 0 110.912-55.68 33.216 33.216 0 0 0-38.08-54.4 365.12 365.12 0 0 1-574.208-299.2 33.216 33.216 0 0 0-66.368 0 431.552 431.552 0 0 0 295.04 409.344A232.32 232.32 0 0 0 495.36 832z m0-66.368a165.952 165.952 0 1 1 0-331.84 165.952 165.952 0 0 1 0 331.84z"  horiz-adv-x="1024" />
      
      <glyph glyph-name="daoru" unicode="&#59204;" d="M135.636363 395.659091v-309.190909c0-43.527273 35.304545-78.831818 78.831819-78.831819h595.063636a78.831818 78.831818 0 0 1 78.831819 78.831819V681.531818A78.831818 78.831818 0 0 1 809.531818 760.363637h-284.277273a32.727273 32.727273 0 0 0 0 65.454545h284.277273A144.286363 144.286363 0 0 0 953.818182 681.531818v-595.063636a144.286363 144.286363 0 0 0-144.286364-144.286364H214.468182A144.286363 144.286363 0 0 0 70.181818 86.468182v309.190909a32.727273 32.727273 0 1 0 65.454545 0zM101.15 719.495455l15.136363-0.818182a423.9 423.9 0 0 0 396.245455-358.568182 32.727273 32.727273 0 0 1 64.677273 9.981818A489.354545 489.354545 0 0 1 119.845455 784.05l-15.177273 0.818182A32.727273 32.727273 0 0 1 101.15 719.454545zM542.968182 370.459091l-139.909091 76.459091a32.727273 32.727273 0 0 1-31.377273-57.436364l149.890909-81.940909a53.181818 53.181818 0 0 1 70.159091 17.795454l93.681819 144.818182a32.727273 32.727273 0 0 1-54.981819 35.59091l-87.463636-135.286364z"  horiz-adv-x="1024" />
      
      <glyph glyph-name="icon-07" unicode="&#58887;" d="M865.28 844.8H163.84C102.4 844.8 56.32 793.6 56.32 732.16v-701.44C56.32-25.6 102.4-76.8 163.84-76.8h701.44c61.44 0 112.64 51.2 112.64 112.64V732.16c0 61.44-51.2 112.64-112.64 112.64z m46.08-808.96c0-25.6-20.48-46.08-46.08-46.08H163.84c-25.6 0-46.08 20.48-46.08 46.08V732.16c0 25.6 20.48 46.08 46.08 46.08h701.44c25.6 0 46.08-20.48 46.08-46.08v-696.32zM491.52 312.32H230.4c-15.36 0-25.6-10.24-25.6-25.6s10.24-25.6 25.6-25.6h261.12c15.36 0 25.6 10.24 25.6 25.6s-10.24 25.6-25.6 25.6zM199.68 665.6v-225.28c0-15.36 10.24-25.6 25.6-25.6 20.48 0 30.72 10.24 30.72 25.6V665.6c0 15.36-10.24 25.6-25.6 25.6-15.36-5.12-30.72-15.36-30.72-25.6zM803.84 378.88c-5.12 0-15.36-5.12-20.48-10.24l-112.64-112.64-46.08 46.08c-5.12 5.12-10.24 10.24-20.48 10.24s-15.36-5.12-20.48-10.24c-5.12-5.12-10.24-10.24-10.24-20.48s5.12-15.36 10.24-20.48l66.56-66.56c5.12-5.12 10.24-10.24 20.48-10.24s15.36 5.12 20.48 10.24l133.12 133.12c10.24 10.24 10.24 30.72 0 40.96-5.12 10.24-15.36 10.24-20.48 10.24zM803.84 230.4c-5.12 0-15.36-5.12-20.48-10.24l-112.64-112.64-46.08 46.08c-5.12 5.12-10.24 10.24-20.48 10.24s-15.36-5.12-20.48-10.24c-5.12-5.12-10.24-10.24-10.24-20.48s5.12-15.36 10.24-20.48l66.56-66.56c5.12-5.12 10.24-10.24 20.48-10.24s15.36 5.12 20.48 10.24l133.12 133.12c10.24 10.24 10.24 30.72 0 40.96-5.12 5.12-15.36 10.24-20.48 10.24zM491.52 138.24H230.4c-15.36 0-25.6-10.24-25.6-25.6s10.24-25.6 25.6-25.6h261.12c15.36 0 25.6 10.24 25.6 25.6s-10.24 25.6-25.6 25.6zM435.2 404.48c-56.32 0-102.4 46.08-102.4 102.4V593.92c0 56.32 46.08 102.4 102.4 102.4s102.4-46.08 102.4-102.4v-87.04c0-56.32-46.08-102.4-102.4-102.4z m0 240.64c-30.72 0-51.2-20.48-51.2-51.2v-87.04c0-30.72 20.48-51.2 51.2-51.2s51.2 20.48 51.2 51.2V593.92c0 30.72-25.6 51.2-51.2 51.2zM716.8 404.48c-56.32 0-102.4 46.08-102.4 102.4V593.92c0 56.32 46.08 102.4 102.4 102.4s102.4-46.08 102.4-102.4v-87.04c0-56.32-46.08-102.4-102.4-102.4z m0 240.64c-30.72 0-51.2-20.48-51.2-51.2v-87.04c0-30.72 20.48-51.2 51.2-51.2s51.2 20.48 51.2 51.2V593.92c0 30.72-25.6 51.2-51.2 51.2z"  horiz-adv-x="1024" />
      
      <glyph glyph-name="icon-01" unicode="&#58884;" d="M430.487562-0.636816H170.666667c-25.472637 0-40.756219 20.378109-40.756219 45.850746V778.825871c0 25.472637 25.472637 45.850746 50.945273 45.850746h621.532339c25.472637 0 40.756219-20.378109 40.756219-45.850746v-371.900498c5.094527-15.283582 15.283582-30.567164 35.661691-30.567164 20.378109 0 35.661692 15.283582 35.661692 35.661691V778.825871C904.278607 845.054726 853.333333 896 792.199005 896H170.666667C109.532338 896 58.587065 839.960199 58.587065 778.825871V45.21393c0-61.134328 50.945274-106.985075 112.079602-106.985074h259.820895c20.378109 0 30.567164 10.189055 30.567164 30.567164 0 15.283582-15.283582 30.567164-30.567164 30.567164zM929.751244 142.00995H766.726368v163.024876c0 20.378109-15.283582 35.661692-35.661691 35.661691s-35.661692-15.283582-35.661692-35.661691v-163.024876h-163.024876c-20.378109 0-35.661692-15.283582-35.661691-35.661691 0-20.378109 15.283582-35.661692 35.661691-35.661692h163.024876v-163.024875c0-20.378109 15.283582-35.661692 35.661692-35.661692s35.661692 15.283582 35.661691 35.661692v163.024875h163.024876c20.378109 0 35.661692 15.283582 35.661691 35.661692 0 20.378109-15.283582 35.661692-35.661691 35.661691z m-168.119403-66.228855zM318.40796 671.840796c-20.378109 0-35.661692-15.283582-35.661691-35.661692 0-20.378109 15.283582-35.661692 35.661691-35.661691h336.238806c20.378109 0 35.661692 15.283582 35.661692 35.661691 0 20.378109-15.283582 35.661692-35.661692 35.661692H318.40796zM517.094527 412.0199c0 10.189055-5.094527 15.283582-10.189054 25.472637s-15.283582 10.189055-20.37811 10.189055H318.40796c-20.378109 0-35.661692-15.283582-35.661691-35.661692 0-20.378109 15.283582-35.661692 35.661691-35.661691h168.119403c15.283582 5.094527 30.567164 20.378109 30.567164 35.661691z"  horiz-adv-x="1024" />
      
      <glyph glyph-name="icon-03" unicode="&#58885;" d="M880.64 844.8H138.24C92.16 844.8 51.2 803.84 51.2 757.76v-742.4c0-51.2 40.96-92.16 92.16-92.16h742.4c46.08 0 87.04 40.96 87.04 87.04V752.64c0 51.2-40.96 92.16-92.16 92.16z m40.96-834.56c0-20.48-15.36-35.84-35.84-35.84H138.24c-20.48 0-35.84 15.36-35.84 35.84V757.76c0 20.48 15.36 35.84 35.84 35.84h747.52c20.48 0 35.84-15.36 35.84-35.84v-747.52zM343.04 389.12s0 5.12 0 0l5.12 5.12L512 558.08c15.36 15.36 15.36 35.84 0 46.08-10.24 15.36-30.72 15.36-46.08 0L322.56 460.8 240.64 542.72c-15.36 10.24-35.84 10.24-46.08 0-15.36-10.24-15.36-30.72 0-46.08l102.4-102.4c15.36-15.36 35.84-15.36 46.08-5.12zM757.76 256c-10.24 15.36-30.72 15.36-46.08 0l-40.96-40.96-40.96 40.96c-10.24 15.36-30.72 15.36-46.08 0-15.36-10.24-15.36-30.72 0-46.08l40.96-40.96-15.36-15.36-25.6-25.6c-10.24-15.36-10.24-35.84 0-46.08 10.24-15.36 30.72-15.36 46.08 0l40.96 40.96 40.96-40.96c15.36-15.36 35.84-15.36 46.08 0 15.36 10.24 15.36 30.72 0 46.08l-40.96 40.96 40.96 40.96c15.36 10.24 15.36 30.72 0 46.08zM716.8 604.16l-450.56-450.56c-15.36-10.24-15.36-30.72 0-46.08 10.24-15.36 30.72-15.36 46.08 0l450.56 450.56c10.24 15.36 10.24 35.84 0 46.08-15.36 15.36-35.84 15.36-46.08 0z"  horiz-adv-x="1024" />
      
      <glyph glyph-name="icon-02" unicode="&#58886;" d="M163.84-128c-20.48 0-46.08 10.24-61.44 25.6-15.36 15.36-25.6 35.84-25.6 61.44v378.88C30.72 353.28 0 394.24 0 440.32c0 56.32 46.08 107.52 102.4 107.52h261.12V762.88C363.52 834.56 419.84 890.88 491.52 896h35.84c71.68 0 128-61.44 128-133.12v-215.04h256c56.32 0 102.4-46.08 102.4-107.52 0-40.96-25.6-81.92-66.56-97.28v-384c0-46.08-35.84-81.92-81.92-87.04H163.84z m563.2 235.52c10.24 0 15.36-5.12 20.48-10.24 5.12-5.12 10.24-15.36 10.24-20.48v-138.24H870.4c10.24 0 20.48 10.24 20.48 20.48V332.8H143.36v-373.76c0-10.24 10.24-20.48 20.48-20.48h107.52V76.8c0 15.36 15.36 30.72 30.72 30.72s30.72-15.36 30.72-30.72v-138.24h148.48V76.8c0 15.36 15.36 30.72 30.72 30.72s30.72-15.36 30.72-30.72v-138.24h148.48v143.36c5.12 15.36 20.48 25.6 35.84 25.6zM107.52 486.4c-25.6 0-46.08-20.48-46.08-46.08s20.48-46.08 46.08-46.08h808.96c25.6 0 46.08 20.48 46.08 46.08s-20.48 46.08-46.08 46.08H107.52z m389.12 343.04c-35.84 0-66.56-30.72-66.56-66.56v-215.04h168.96V762.88c0 35.84-30.72 66.56-66.56 66.56h-35.84z"  horiz-adv-x="1024" />
      
      <glyph glyph-name="icon-05" unicode="&#58881;" d="M337.92 358.4c-56.32 0-102.4-46.08-102.4-107.52s46.08-102.4 102.4-102.4 102.4 46.08 102.4 102.4-40.96 107.52-102.4 107.52z m40.96-148.48l-10.24-10.24-5.12-5.12c-5.12-5.12-15.36-5.12-25.6-5.12-15.36 0-30.72 5.12-40.96 15.36-25.6 25.6-25.6 61.44 0 81.92 10.24 10.24 25.6 15.36 40.96 15.36 15.36 0 30.72-5.12 40.96-15.36 10.24-10.24 15.36-25.6 15.36-40.96 5.12-10.24 0-25.6-15.36-35.84zM798.72 593.92h-261.12c-15.36 0-25.6-10.24-25.6-25.6s10.24-25.6 25.6-25.6h261.12c15.36 0 25.6 10.24 25.6 25.6 5.12 15.36-10.24 25.6-25.6 25.6zM798.72 409.6h-261.12c-15.36 0-25.6-10.24-25.6-25.6s10.24-25.6 25.6-25.6h261.12c15.36 0 25.6 10.24 25.6 25.6 5.12 15.36-10.24 25.6-25.6 25.6zM440.32 609.28c-5.12 0-15.36-5.12-20.48-10.24L307.2 491.52 261.12 537.6c-5.12 5.12-15.36 5.12-20.48 5.12s-15.36 0-20.48-5.12c-5.12-10.24-5.12-15.36-5.12-20.48s5.12-15.36 10.24-20.48l66.56-66.56c0-5.12 5.12-10.24 15.36-10.24s15.36 5.12 20.48 10.24L460.8 563.2c10.24 10.24 10.24 30.72 0 40.96-10.24 0-15.36 5.12-20.48 5.12zM798.72 230.4h-261.12c-15.36 0-25.6-10.24-25.6-25.6s10.24-25.6 25.6-25.6h261.12c15.36 0 25.6 10.24 25.6 25.6s-10.24 25.6-25.6 25.6zM860.16 844.8H163.84C102.4 844.8 51.2 793.6 51.2 732.16v-701.44C51.2-25.6 102.4-76.8 163.84-76.8h701.44c61.44 0 112.64 51.2 112.64 112.64V732.16C972.8 793.6 921.6 844.8 860.16 844.8z m46.08-808.96c0-25.6-20.48-46.08-46.08-46.08H163.84c-25.6 0-46.08 20.48-46.08 46.08V732.16c0 25.6 20.48 46.08 46.08 46.08h701.44c25.6 0 46.08-20.48 46.08-46.08v-696.32z"  horiz-adv-x="1024" />
      
      <glyph glyph-name="icon-06" unicode="&#58882;" d="M691.2 296.96l-143.36 363.52-5.12 5.12-15.36 15.36c-20.48 10.24-40.96 0-46.08-15.36l-148.48-363.52v-5.12c-5.12-15.36 5.12-35.84 20.48-40.96H358.4c15.36-5.12 35.84 5.12 40.96 20.48l35.84 87.04h153.6l35.84-87.04 5.12-5.12c10.24-15.36 30.72-20.48 46.08-15.36 15.36 0 25.6 20.48 15.36 40.96zM465.92 430.08l51.2 122.88 46.08-122.88H465.92zM921.6 762.88c20.48 0 35.84-15.36 35.84-35.84v-563.2c0-20.48-15.36-35.84-35.84-35.84h-230.4c-15.36 0-30.72-5.12-46.08-15.36l-112.64-107.52h-5.12-5.12l-117.76 107.52c-15.36 10.24-30.72 15.36-46.08 15.36H102.4c-20.48 0-35.84 15.36-35.84 35.84v563.2c0 20.48 15.36 35.84 35.84 35.84h819.2m0 66.56H102.4c-56.32 0-102.4-46.08-102.4-102.4v-563.2c0-56.32 46.08-102.4 102.4-102.4h256l117.76-107.52c15.36-15.36 30.72-20.48 51.2-20.48s35.84 5.12 51.2 20.48l112.64 107.52H921.6c56.32 0 102.4 46.08 102.4 102.4v563.2c0 56.32-46.08 102.4-102.4 102.4z"  horiz-adv-x="1024" />
      
      <glyph glyph-name="a-icon_huaban1" unicode="&#58883;" d="M620-21c-9 0-18 4.5-22.5 9l-108 108c-13.5 13.5-9 31.5 0 45 13.5 13.5 31.5 13.5 45 0l49.5-54V469.5c0 18 13.5 31.5 31.5 31.5 18 0 31.5-13.5 31.5-31.5v-459c0-13.5-9-27-18-31.5h-9zM777.5-21c-18 0-31.5 13.5-31.5 31.5V469.5c0 18 13.5 31.5 31.5 31.5 9 0 18-4.5 22.5-9l108-108c13.5-13.5 13.5-31.5 0-45-13.5-13.5-31.5-13.5-45 0l-49.5 54v-378c-4.5-22.5-18-36-36-36zM138.5 721.5c-13.5 0-27 13.5-31.5 31.5 0 13.5 9 31.5 27 36h751.5c18 0 31.5-18 31.5-36s-13.5-31.5-31.5-31.5C602 726 170 726 143 726l-4.5-4.5zM368 352.5H138.5c-18 0-31.5 13.5-31.5 31.5 0 18 13.5 31.5 31.5 31.5h229.5c18 0 31.5-13.5 31.5-31.5 4.5-18-13.5-31.5-31.5-31.5zM368-21H138.5c-18 0-31.5 13.5-31.5 31.5 0 18 13.5 31.5 31.5 31.5h229.5c18 0 31.5-13.5 31.5-31.5 4.5-18-13.5-31.5-31.5-31.5z"  horiz-adv-x="1024" />
      
    </font>
</defs>
</svg>
